<?xml version="1.0" standalone="no"?>
<!DOCTYPE svg PUBLIC "-//W3C//DTD SVG 1.1//EN" "http://www.w3.org/Graphics/SVG/1.1/DTD/svg11.dtd">
<svg xmlns="http://www.w3.org/2000/svg">
<metadata>Generated by Fontastic.me</metadata>
<defs>
<font id="webfont" horiz-adv-x="512">
<font-face font-family="webfont" units-per-em="512" ascent="480" descent="-32"/>
<missing-glyph horiz-adv-x="512" />

<glyph glyph-name="armchair" unicode="&#97;" d="M367 84l-222 0c-22 0-41 18-41 41l0 63c0 25 21 46 46 46 26 0 46-21 46-46l0-4 120 0 0 4c0 25 20 46 46 46 25 0 46-21 46-46l0-63c0-23-19-41-41-41z m-217 131c-15 0-29-14-29-29l0-63c0-14 10-24 24-24l222 0c14 0 24 10 24 24l0 65c0 15-14 29-29 29-16 0-29-14-29-29l0-12c0-5-4-9-9-9l-136 0c-5 0-9 4-9 9l0 12c0 15-13 27-29 27z m50-160l-50 0c-5 0-8 3-8 8l0 29c0 5 3 9 8 9l50 0c5 0 8-4 8-9l0-29c0-3-5-8-8-8z m-41 17l32 0 0 12-32 0z m203-17l-50 0c-5 0-8 3-8 8l0 29c0 5 3 9 8 9l50 0c5 0 8-4 8-9l0-29c0-3-3-8-8-8z m-41 17l32 0 0 12-32 0z m54 143c-5 0-8 3-8 9l0 157c0 32-27 59-60 59l-102 0c-33 0-60-27-60-59l0-157c0-6-3-9-8-9-6 0-9 3-9 9l0 157c0 42 34 76 77 76l102 0c43 0 77-34 77-76l0-157c0-4-3-9-9-9z m-71 125l-94 0c-5 0-9 3-9 8 0 5 4 9 9 9l94 0c5 0 8-4 8-9 0-5-5-8-8-8z m0-70l-94 0c-5 0-9 3-9 8 0 5 4 9 9 9l94 0c5 0 8-4 8-9 0-5-5-8-8-8z"/>
<glyph glyph-name="bar-and-stools" unicode="&#98;" d="M278 104l-42 0c-6 0-9 4-9 9 0 5 3 8 9 8l42 0c5 0 9-3 9-8 0-5-5-9-9-9z m-22 0c-5 0-9 4-9 9l0 244c0 5 4 8 9 8 5 0 9-3 9-8l0-244c0-4-4-9-9-9z m111 244l-222 0c-5 0-8 5-8 9l0 42c0 5 3 9 8 9l222 0c5 0 8-4 8-9l0-41c0-5-3-10-8-10z m-213 17l204 0 0 26-204 0z m0-126l-91 0c-5 0-8 3-8 8l0 57c0 5 3 8 8 8l91 0c5 0 8-3 8-8l0-57c0-5-3-8-8-8z m-82 17l73 0 0 39-73 0z m36-145c-6 0-9 3-9 8l0 128c0 6 3 9 9 9 5 0 8-3 8-9l0-128c0-5-3-8-8-8z m22-7l-43 0c-5 0-8 4-8 9 0 5 3 8 8 8l43 0c5 0 8-3 8-8 0-5-3-9-8-9z m-22 72l-35 0c-5 0-8 3-8 8 0 5 3 9 8 9l35 0c5 0 8-4 8-9 0-5-3-8-8-8z m341 63l-91 0c-5 0-8 3-8 8l0 57c0 5 3 8 8 8l91 0c5 0 8-3 8-8l0-57c0-5-3-8-8-8z m-82 17l73 0 0 39-73 0z m37-145c-5 0-8 3-8 8l0 128c0 6 3 9 8 9 6 0 9-3 9-9l0-128c0-5-5-8-9-8z m21-7l-43 0c-5 0-8 4-8 9 0 5 3 8 8 8l43 0c5 0 8-3 8-8 0-5-3-9-8-9z m12 72l-34 0c-5 0-9 3-9 8 0 5 4 9 9 9l34 0c5 0 8-4 8-9 0-5-3-8-8-8z"/>
<glyph glyph-name="bathroom-mirror" unicode="&#99;" d="M218 355c-1 0-5 0-6 2-4 3-4 8 0 12l12 12c3 3 8 3 12 0 3-4 3-9 0-12l-11-11c-1-1-5-3-7-3z m7-46c-1 0-5 0-7 2-3 3-3 8 0 12l12 12c4 3 9 3 12 0 4-4 4-9 0-12l-12-12c-1 0-3-2-5-2z m36 37c-2 0-5 0-7 2-3 4-3 9 0 12l12 12c4 3 9 3 12 0 4-3 4-8 0-12l-12-12c0-2-1-2-5-2z m114-198c-5 0-8 4-8 9l0 268c0 10-9 19-19 19l-184 0c-10 0-19-9-19-19l0-268c0-5-3-9-8-9-6 0-9 4-9 9l0 268c0 20 15 36 36 36l184 0c19 0 36-16 36-36l0-268c0-5-3-9-9-9z m-44 0l-150 0c-5 0-9 4-9 9l0 249c0 5 4 9 9 9l150 0c5 0 9-4 9-9l0-249c0-5-4-9-9-9z m-142 18l134 0 0 232-134 0z m197-115l-260 0c-18 0-36 16-36 36l0 56c0 12 11 23 23 23l286 0c12 0 23-11 23-23l0-56c0-20-16-36-36-36z m-273 97c-4 0-5-1-5-5l0-56c0-10 8-19 18-19l261 0c11 0 19 9 19 19l0 56c0 4-2 5-5 5z"/>
<glyph glyph-name="bed" unicode="&#100;" d="M452 172l-392 0c-5 0-9 4-9 9l0 72c0 5 4 8 9 8l392 0c5 0 9-3 9-8l0-72c0-5-4-9-9-9z m-384 17l376 0 0 55-376 0z m197 81l-18 0 0 22c0 12-10 24-23 24l-79 0c-14 0-24-11-24-24l0-22-17 0 0 22c0 22 19 41 41 41l79 0c22 0 41-19 41-41z m141 0l-17 0 0 22c0 12-10 24-24 24l-78 0c-12 0-24-11-24-24l0-22-17 0 0 22c0 22 19 41 41 41l78 0c22 0 41-19 41-41z m43-24l-17 0 0 97c0 12-10 22-22 22l-306 0c-12 0-22-10-22-22l0-97-17 0 0 97c0 22 19 39 39 39l304 0c22 0 39-18 39-39l0-97z m-340-116l-34 0c-5 0-8 3-8 8l0 45c0 5 3 8 8 8l68 0c4 0 7-2 9-5 2-3 2-7-2-9l-34-44c-2-3-5-3-7-3z m-25 17l22 0 20 27-42 0z m353-17l-34 0c-4 0-5 1-7 3l-34 44c-2 4-2 7-2 9 2 3 5 5 9 5l68 0c5 0 8-3 8-8l0-45c0-5-3-8-8-8z m-29 17l22 0 0 27-43 0z"/>
<glyph glyph-name="bed-room-chair" unicode="&#101;" d="M353 171l-194 0c-14 0-26 12-26 25l0 36c0 14 12 26 26 26l194 0c14 0 26-12 26-26l0-36c0-15-12-25-26-25z m-194 68c-5 0-9-3-9-9l0-35c0-4 4-7 9-7l194 0c5 0 9 3 9 8l0 36c0 5-4 9-9 9l-194 0z m13-186l-25 0c-2 0-5 2-7 3-2 2-2 5-2 7l17 118c0 3 4 7 9 7l44 0c4 0 5-2 7-4 2-1 2-5 2-7l-34-117c-4-5-7-7-11-7z m-15 17l10 0 29 101-25 0z m208-17l-25 0c-4 0-7 2-9 7l-34 117c0 4 0 6 2 7 1 2 3 4 6 4l45 0c3 0 8-4 8-7l17-118c0-2 0-5-1-7-4-3-5-3-9-3z m-19 17l11 0-16 101-25 0z m-3 271l-174 0c-5 0-9 4-9 9l0 77c0 18 16 34 35 34l124 0c19 0 34-16 34-34l0-77c-1-5-5-9-10-9z m-166 17l158 0 0 69c0 8-7 17-18 17l-124 0c-9 0-17-7-17-17l0-69z m-17-25l17 0 0-68-17 0z m175 0l17 0 0-68-17 0z"/>
<glyph glyph-name="bedroom-chair" unicode="&#102;" d="M353 171l-194 0c-14 0-26 12-26 25l0 36c0 14 12 26 26 26l194 0c14 0 26-12 26-26l0-36c0-15-12-25-26-25z m-194 68c-5 0-9-3-9-9l0-35c0-4 4-7 9-7l194 0c5 0 9 3 9 8l0 36c0 5-4 9-9 9l-194 0z m13-186l-25 0c-2 0-5 2-7 3-2 2-2 5-2 7l17 118c0 3 4 7 9 7l44 0c4 0 5-2 7-4 2-1 2-5 2-7l-34-117c-4-5-7-7-11-7z m-15 17l10 0 29 101-25 0z m208-17l-25 0c-4 0-7 2-9 7l-34 117c0 4 0 6 2 7 1 2 3 4 6 4l45 0c3 0 8-4 8-7l17-118c0-2 0-5-1-7-4-3-5-3-9-3z m-19 17l11 0-16 101-25 0z m6 177l-17 0 0 180c0 8-7 17-18 17l-124 0c-9 0-17-7-17-17l0-178-17 0 0 178c0 18 15 34 34 34l124 0c19 0 35-16 35-34z"/>
<glyph glyph-name="bidet" unicode="&#103;" d="M143 357l313 0 0-17-313 0z m130-282l-218 0c-6 0-9 4-9 9l0 221c0 6 3 9 9 9l373 0c5 0 9-3 9-9l0-71c0-43-34-77-77-77l-90 0 10-72c0-1 0-5-2-6 0-2-3-4-5-4z m-210 17l200 0-10 72c0 2 0 5 1 7 2 1 4 3 7 3l101 0c32 0 60 27 60 60l0 63-359 0z m155 82l142 0 0-17-142 0z m-105 131l-17 0 0 99c0 9-7 16-16 16-8 0-15-7-15-16l0-97-17 0 0 97c0 19 15 33 32 33 19 0 33-15 33-33z"/>
<glyph glyph-name="bookshelf" unicode="&#104;" d="M364 75l-216 0c-17 0-32 15-32 33l0 320c0 17 15 33 32 33l216 0c17 0 32-16 32-33l0-320c0-18-14-33-32-33z m-216 369c-8 0-15-7-15-16l0-320c0-9 7-16 15-16l216 0c8 0 15 7 15 16l0 320c0 9-7 16-15 16z m-23-79l262 0 0-17-262 0z m0-95l262 0 0-17-262 0z m122-9l18 0 0-177-18 0z m-39-65l17 0 0-29-17 0z m79 0l17 0 0-29-17 0z m-144-128l40 0 0-17-40 0z m188 0l39 0 0-17-39 0z m-5 185l-31 0c-5 0-8 3-8 8l0 62c0 5 3 8 8 8l31 0c5 0 9-3 9-8l0-62c0-5-4-8-9-8z m-22 17l13 0 0 44-13 0z m53-17l-31 0c-5 0-9 3-9 8l0 62c0 5 4 8 9 8l31 0c5 0 8-3 8-8l0-62c0-5-3-8-8-8z m-22 17l13 0 0 44-13 0z m52-17l-30 0c-5 0-9 3-9 8l0 62c0 5 4 8 9 8l30 0c6 0 9-3 9-8l0-62c0-5-3-8-9-8z m-22 17l14 0 0 44-14 0z m-210 78l-30 0c-6 0-9 4-9 9l0 61c0 4 3 9 9 9l30 0c5 0 9-4 9-9l0-61c0-5-5-9-9-9z m-22 17l14 0 0 45-14 0z m53-17l-31 0c-5 0-8 4-8 9l0 61c0 4 3 9 8 9l31 0c5 0 9-4 9-9l0-61c0-5-6-9-9-9z m-22 17l13 0 0 45-13 0z m53-17l-31 0c-5 0-9 4-9 9l0 61c0 5 4 9 9 9l31 0c5 0 8-4 8-9l0-61c0-5-5-9-8-9z m-22 17l13 0 0 45-13 0z"/>
<glyph glyph-name="boxes" unicode="&#105;" d="M256 247l-195 0c-5 0-8 4-8 9l0 195c0 5 3 8 8 8l195 0c5 0 9-3 9-8l0-195c0-5-4-9-9-9z m-186 18l177 0 0 177-177 0z m150 18l-123 0c-5 0-8 4-8 9l0 123c0 5 3 8 8 8l121 0c6 0 9-3 9-8l0-121c2-6-3-11-7-11z m-114 17l104 0 0 106-104 0z m150-247l-195 0c-5 0-8 3-8 8l0 195c0 5 3 9 8 9l195 0c5 0 9-4 9-9l0-195c0-5-4-8-9-8z m-186 17l177 0 0 177-177 0z m150 19l-123 0c-5 0-8 3-8 8l0 121c0 6 3 9 8 9l121 0c6 0 9-3 9-9l0-121c2-3-3-8-7-8z m-114 17l104 0 0 104-104 0z m345-53l-195 0c-5 0-9 3-9 8l0 195c0 5 4 9 9 9l195 0c5 0 8-4 8-9l0-195c0-5-3-8-8-8z m-186 17l177 0 0 177-177 0z m150 19l-121 0c-6 0-9 3-9 8l0 121c0 6 3 9 9 9l121 0c5 0 8-3 8-9l0-121c0-3-5-8-8-8z m-115 17l104 0 0 104-104 0z"/>
<glyph glyph-name="cabibnet-with-drawer" unicode="&#106;" d="M451 398l-390 0c-5 0-8 3-8 8l0 41c0 5 3 9 8 9l391 0c5 0 9-4 9-9l0-41c-2-5-5-8-10-8z m-381 17l374 0 0 24-374 0z m340-326l-308 0c-5 0-8 3-8 8l0 309c0 5 3 9 8 9l308 0c5 0 8-4 8-9l0-309c0-5-3-8-8-8z m-299 17l290 0 0 292-290 0z m46-50l-34 0c-5 0-9 4-9 9l0 31c0 5 4 8 9 8l36 0c5 0 8-3 8-8l0-31c0-5-5-9-10-9z m-26 17l19 0 0 14-19 0z m258-17l-36 0c-5 0-8 4-8 9l0 31c0 5 3 8 8 8l36 0c5 0 9-3 9-8l0-31c0-5-4-9-9-9z m-27 17l19 0 0 14-19 0z m-123 186l-101 0c-5 0-8 4-8 9l0 102c0 5 3 9 8 9l101 0c5 0 8-4 8-9l0-102c0-5-3-9-8-9z m-92 17l83 0 0 86-83 0z m227-17l-101 0c-5 0-8 4-8 9l0 102c0 5 3 9 8 9l101 0c5 0 8-4 8-9l0-102c0-5-3-9-8-9z m-92 17l83 0 0 86-83 0z m90-153l-234 0c-5 0-8 3-8 8l0 103c0 5 3 8 8 8l234 0c5 0 9-3 9-8l0-103c0-3-4-8-9-8z m-225 17l217 0 0 85-217 0z m44 171l-5 0c-5 0-9 3-9 8 0 5 4 9 9 9l5 0c5 0 9-4 9-9 0-5-4-8-9-8z m135 0l-5 0c-5 0-9 3-9 8 0 5 4 9 9 9l5 0c5 0 9-4 9-9 0-5-4-8-9-8z m-68-134l-5 0c-6 0-9 4-9 9 0 5 3 9 9 9l5 0c5 0 8-4 8-9 0-5-3-9-8-9z"/>
<glyph glyph-name="cabinet" unicode="&#107;" d="M451 398l-390 0c-5 0-8 3-8 8l0 41c0 5 3 9 8 9l391 0c5 0 9-4 9-9l0-41c-2-5-5-8-10-8z m-381 17l374 0 0 24-374 0z m340-326l-308 0c-5 0-8 3-8 8l0 309c0 5 3 9 8 9l308 0c5 0 8-4 8-9l0-309c0-5-3-8-8-8z m-299 17l290 0 0 292-290 0z m46-50l-34 0c-5 0-9 4-9 9l0 31c0 5 4 8 9 8l36 0c5 0 8-3 8-8l0-31c-1-5-5-9-10-9z m-26 17l19 0 0 14-19 0z m258-17l-36 0c-5 0-8 4-8 9l0 31c0 5 3 8 8 8l36 0c5 0 9-3 9-8l0-31c0-5-4-9-9-9z m-27 17l19 0 0 14-19 0z m-123 50l-101 0c-5 0-8 3-8 8l0 239c0 5 3 9 8 9l101 0c5 0 8-4 8-9l0-239c0-3-3-8-8-8z m-92 17l83 0 0 222-83 0z m227-17l-101 0c-5 0-8 3-8 8l0 239c0 5 3 9 8 9l101 0c5 0 8-4 8-9l0-239c0-3-3-8-8-8z m-92 17l83 0 0 222-83 0z m-91 102l-5 0c-5 0-9 4-9 9 0 5 4 8 9 8l5 0c5 0 9-3 9-8 0-5-4-9-9-9z m135 0l-5 0c-5 0-9 4-9 9 0 5 4 8 9 8l5 0c5 0 9-3 9-8 0-5-4-9-9-9z"/>
<glyph glyph-name="cabinet-with-drawers" unicode="&#108;" d="M451 398l-390 0c-5 0-8 3-8 8l0 41c0 5 3 9 8 9l391 0c5 0 9-4 9-9l0-41c-2-5-5-8-10-8z m-381 17l374 0 0 24-374 0z m340-326l-308 0c-5 0-8 3-8 8l0 309c0 5 3 9 8 9l308 0c5 0 8-4 8-9l0-309c0-5-3-8-8-8z m-299 17l290 0 0 292-290 0z m46-50l-34 0c-5 0-9 4-9 9l0 31c0 5 4 8 9 8l36 0c5 0 8-3 8-8l0-31c0-5-5-9-10-9z m-26 17l19 0 0 14-19 0z m258-17l-36 0c-5 0-8 4-8 9l0 31c0 5 3 8 8 8l36 0c5 0 9-3 9-8l0-31c0-5-4-9-9-9z m-27 17l19 0 0 14-19 0z m12 186l-236 0c-5 0-8 4-8 9l0 102c0 5 3 9 8 9l236 0c5 0 8-4 8-9l0-102c0-5-3-9-8-9z m-227 17l218 0 0 86-218 0z m44 35l-5 0c-5 0-9 3-9 8 0 5 4 9 9 9l5 0c5 0 9-4 9-9 0-5-4-8-9-8z m135 0l-5 0c-5 0-9 3-9 8 0 5 4 9 9 9l5 0c5 0 9-4 9-9 0-5-4-8-9-8z m48-185l-236 0c-5 0-8 4-8 9l0 102c0 5 3 9 8 9l236 0c5 0 8-4 8-9l0-102c0-5-3-9-8-9z m-227 17l218 0 0 86-218 0z m44 34l-5 0c-5 0-9 4-9 9 0 5 4 9 9 9l5 0c5 0 9-4 9-9 0-5-4-9-9-9z m135 0l-5 0c-5 0-9 4-9 9 0 5 4 9 9 9l5 0c5 0 9-4 9-9 0-5-4-9-9-9z"/>
<glyph glyph-name="cactus" unicode="&#109;" d="M321 51l-128 0c-4 0-7 2-9 5l-49 151c-2 3 0 5 2 8 1 2 3 3 6 3l229 0c3 0 5-1 7-3 2-2 2-5 2-8l-50-151c-3-3-7-5-10-5z m-123 17l116 0 44 133-204 0z m128 133l-140 0c-5 0-9 4-9 9 0 2 0 3 0 3l0 169c0 45 36 79 79 79 43 0 79-36 79-79l0-169c0 0 0-1 0-3 0-5-4-9-9-9z m-131 17l122 0 0 164c0 34-27 62-61 62-34 0-61-28-61-62z m88-17l-56 0c-5 0-9 4-9 9l0 172c0 40 14 79 38 79 24 0 38-39 38-79l0-169c0-1 0-1 0-3-2-3-6-9-11-9z m-47 17l39 0 0 164c1 41-12 62-19 62-7 0-20-22-20-62z m-81 178l14-15-12-12-14 15z m-1-38l15-14-12-12-15 14z m0-37l15-15-12-12-15 15z m207 51l14-15-12-12-14 15z m-1-38l15-14-12-12-15 14z m1-36l15-14-12-13-15 15z m-106 55l14-14-12-13-15 15z m-1-37l15-15-12-12-15 15z m1-37l15-14-12-12-15 14z m-88-136l179 0 0-17-179 0z"/>
<glyph glyph-name="candle" unicode="&#110;" d="M256 87c-9 0-80 0-82 29l0 186c0 5 3 9 9 9 5 0 8-4 8-9 2-3 26-12 65-12 38 0 60 9 65 12 0 0 0 2 0 2 0 3 3 7 8 7 6 0 9-6 9-9l0-186c-2-29-73-29-82-29z m-65 195l0-168c2-3 26-12 65-12 38 0 61 9 65 12l0 166c-22-7-60-7-65-7-5 0-43 0-65 9z m65-9c-9 0-82 0-82 29 0 29 73 29 82 29 9 0 82 0 82-29 0-29-73-29-82-29z m-63 27c5-3 29-10 63-10 34 0 58 7 63 12-5 5-29 12-63 12-34 0-58-9-63-14z m63-249c-90 0-183 19-183 57 0 34 77 47 110 52 1 0 5 0 6-1 2-2 4-4 4-7l0-36c2-3 25-12 65-12 37 0 61 9 65 12l0 34c0 2 1 5 3 7 2 2 5 2 7 2 32-4 109-17 109-53-3-36-96-55-186-55z m-82 91c-61-9-85-26-85-34 0-16 65-40 165-40 101 0 166 24 166 40 0 8-27 25-85 34l0-26c0-27-74-29-82-29-9 0-81 0-82 29z m82 170c-32 0-58 26-58 58 0 14 5 26 14 36l37 51c2 2 4 4 7 4 3 0 5-2 7-4l37-51c9-10 12-22 12-36 2-32-24-58-56-58z m0 127l-31-43c-7-7-8-17-8-26 0-22 19-41 41-41 22 0 41 19 41 41 0 9-4 17-9 26z m0-127c-19 0-32 16-32 33 0 7 1 15 6 20l19 28c2 1 4 3 7 3 3 0 5-2 7-3l19-26c5-5 6-14 6-21 0-18-13-34-32-34z m0 60l-12-17c-2-2-3-5-3-10 0-9 6-16 15-16 9 0 15 7 15 16 0 5-1 8-3 10z m0-73c-5 0-9 3-9 8l0 14c0 5 4 8 9 8 5 0 9-3 9-8l0-14c0-5-4-8-9-8z"/>
<glyph glyph-name="candle-stick" unicode="&#111;" d="M247 321l18 0 0-195-18 0z m96-270l-174 0c-5 0-9 4-9 9l0 41c0 5 4 8 9 8l176 0c5 0 8-3 8-8l0-41c-1-5-5-9-10-9z m-166 17l159 0 0 24-159 0z m118 106l-78 0c-53 0-98 43-98 97l0 50 18 0 0-50c0-44 35-80 80-80l78 0c45 0 80 36 80 80l0 50 18 0 0-50c0-53-45-97-98-97z m-184 155l36 0 0-17-36 0z m256 0l36 0 0-17-36 0z m-128 0l36 0 0-17-36 0z m-111 11c-2 0-3 0-5 1l-5 4c-16 12-28 20-28 46 0 25 12 49 33 65 3 1 7 1 10 0 21-16 33-40 33-65 0-26-12-34-28-46l-5-4c-2-1-3-1-5-1z m0 99c-14-14-20-29-20-48 0-17 6-22 20-33 14 11 20 16 20 33 0 19-6 34-20 48z m128-99c-2 0-3 0-5 1l-5 4c-16 12-28 20-28 48 0 27 12 51 35 68 3 2 6 2 10 0 20-17 34-41 34-68 0-28-12-36-27-48l-9-4c-2-1-3-1-5-1z m0 102c-14-14-22-31-22-49 0-19 7-23 20-35 16 11 21 16 21 35 3 18-5 35-19 49z m128-102c-2 0-3 0-5 1l-5 4c-16 12-28 20-28 46 0 25 12 49 33 65 3 1 7 1 10 0 21-16 33-40 33-65 0-26-12-34-28-46l-5-4c-2-1-3-1-5-1z m0 99c-14-12-20-29-20-48 0-17 6-22 20-33 14 11 20 16 20 33 0 19-6 34-20 48z"/>
<glyph glyph-name="ceiling-lamp-1" unicode="&#112;" d="M189 73c-41 0-75 35-75 75l17 0c0-32 26-58 58-58 33 0 58 26 58 58l0 236 18 0 0-236c0-40-35-75-76-75z m-5 84l-123 0c-1 0-5 2-6 3-2 2-2 6-2 7l22 115c0 3 5 6 9 6l76 0c4 0 7-3 9-6l22-115c0-1 0-5-2-7 0-3-3-3-5-3z m-112 17l102 0-20 96-64 0z m251-101c-41 0-76 35-76 75l0 236 18 0 0-236c0-32 25-58 58-58 32 0 58 26 58 58l17 0c0-40-33-75-75-75z m128 84l-123 0c-2 0-5 2-7 3-2 2-2 6-2 7l22 115c0 3 5 6 9 6l77 0c3 0 6-3 8-6l22-115c0-1 0-5-1-7 0-3-2-3-5-3z m-113 17l102 0-18 97-64 0z m-125 237l86 0 0-17-86 0z m-17 28l120 0 0-17-120 0z"/>
<glyph glyph-name="ceiling-lamp-2" unicode="&#113;" d="M181 55c-46 0-84 37-84 83l17 0c0-36 29-66 67-66 36 0 66 29 66 66l0 261 18 0 0-262c0-47-38-82-84-82z m-43 92l-61 0c-5 0-9 3-9 7l-12 126c0 2 0 5 2 7 2 1 3 3 7 3l85 0c2 0 5-2 7-3 2-2 2-4 2-7l-12-126c-2-4-5-7-9-7z m-54 17l46 0 10 109-67 0z m247-109c-46 0-84 37-84 83l0 261 18 0 0-262c0-36 29-67 66-67 36 0 67 29 67 67l17 0c-2-47-40-82-84-82z m104 92l-61 0c-5 0-9 3-9 8l-12 127c0 1 0 5 2 6 2 2 3 4 7 4l85 0c2 0 5-2 7-4 2-1 2-3 2-6l-12-128c0-4-4-7-9-7z m-53 17l46 0 11 109-67 0z m-174 264l96 0 0-17-96 0z m-19 29l134 0 0-17-134 0z m-121-218l72 0 0-17-72 0z m301 0l71 0 0-17-71 0z"/>
<glyph glyph-name="ceiling-lamp-3" unicode="&#114;" d="M189 73c-37 0-61 29-61 75l17 0c0-17 5-58 44-58 33 0 58 26 58 58l0 236 18 0 0-236c0-40-35-75-76-75z m134 0c-41 0-76 35-76 75l0 236 18 0 0-236c0-32 25-58 58-58 41 0 44 41 44 58l17 0c0-46-24-75-61-75z m-110 338l86 0 0-17-86 0z m-17 28l120 0 0-17-120 0z m16-287l-151 0c-5 0-8 3-8 8 0 47 37 84 84 84 46 0 83-37 83-84 0-5-5-8-8-8z m-142 17l131 0c-3 32-32 58-66 58-34 0-60-26-65-58z m381-17l-151 0c-5 0-8 3-8 8 0 47 37 84 83 84 47 0 84-37 84-84 0-5-3-8-8-8z m-140 17l131 0c-3 32-32 58-67 58-34 0-61-26-64-58z m-183 107l17 0 0-25-17 0z m239 0l17 0 0-25-17 0z"/>
<glyph glyph-name="ceiling-lamp-4" unicode="&#115;" d="M184 61c-44 0-80 36-80 81l17 0c0-34 29-63 63-63 34 0 63 29 63 63l0 252 18 0 0-252c0-45-36-81-81-81z m144 0c-45 0-81 36-81 81l0 252 18 0 0-252c0-34 29-63 63-63 34 0 63 29 63 63l17 0c0-45-36-81-80-81z m-118 361l92 0 0-18-92 0z m-19 29l128 0 0-18-128 0z m-78-301c-11 0-62 0-62 22l0 135c0 5 4 9 9 9 3 0 7-4 8-7 4-4 19-9 45-9 24 2 41 7 44 9 0 3 3 7 9 7 5 0 8-4 8-9l0-135c0-22-51-22-61-22z m-45 24c4-3 19-7 45-7 25 0 41 5 44 7l0 116c-15-5-38-5-44-5-7 0-29 0-45 5z m45 111c-11 0-62 0-62 22 0 22 51 22 62 22 10 0 61-1 61-22 0-20-51-22-61-22z m-41 22c7-3 20-5 41-5 20 0 34 3 41 5-7 4-21 5-41 5-21 2-34-1-41-5z m327-157c-10 0-61 2-61 22l0 135c0 5 3 9 8 9 4 0 7-4 9-7 3-4 19-9 44-9 26 0 41 5 45 9 0 3 3 7 8 7 5 0 9-4 9-9l0-135c0-22-51-22-62-22z m-44 24c3-3 19-7 44-7 24 0 41 5 45 7l0 116c-16-5-38-5-45-5-6 0-29 0-44 5z m44 111c-10 0-61 2-61 22 0 21 51 22 61 22 11 0 62 0 62-22 0-22-51-22-62-22z m-41 22c7-3 21-5 41-5 21 0 34 3 41 5-7 4-20 5-41 5-20 0-34-1-41-5z"/>
<glyph glyph-name="chair" unicode="&#116;" d="M256 92c-150 0-169 0-169 60 0 56 73 99 169 99 94 0 169-44 169-99 0-60-19-60-169-60z m0 142c-82 0-152-38-152-82 0-41 0-43 152-43 152 0 152 2 152 43 0 44-70 82-152 82z m-160-91c-6 0-9 4-9 9l0 77c0 24 19 42 43 42 24 0 42-18 42-42 0-5-3-9-8-9-5 0-9 4-9 9 0 13-12 25-25 25-14 0-26-12-26-25l0-77c0-5-3-9-8-9z m320 0c-5 0-8 4-8 9l0 77c0 13-12 25-26 25-13 0-25-12-25-25 0-5-4-9-9-9-5 0-8 4-8 9 0 24 18 42 42 42 24 0 43-18 43-42l0-77c0-5-3-9-9-9z m-22 111c-5 0-8 4-8 9l0 83c0 53-43 96-96 96l-68 0c-53 0-96-43-96-96l0-83c0-5-3-9-8-9-5 0-9 4-9 9l0 83c0 62 51 113 113 113l68 0c62 0 113-51 113-113l0-83c0-5-4-9-9-9z m-186 24c-1 0-5 0-7 2-3 3-3 8 0 12l14 13c3 4 9 4 12 0 3-3 3-8 0-11l-14-14c-1 0-3-2-5-2z m14 0c-2 0-5 0-7 2l-14 14c-3 3-3 8 0 11 4 4 9 4 12 0l14-13c3-4 3-9 0-12-2 0-3-2-5-2z m-14 70c-1 0-5 0-7 2-3 3-3 8 0 12l14 13c3 4 9 4 12 0 3-3 3-8 0-11l-14-14c-1-2-3-2-5-2z m14 0c-2 0-5 0-7 2l-14 14c-3 3-3 8 0 11 4 4 9 4 12 0l14-13c3-4 3-9 0-12-2-2-3-2-5-2z m68-70c-2 0-5 0-7 2-3 3-3 8 0 12l14 13c3 4 8 4 12 0 3-3 3-8 0-11l-14-14c0 0-1-2-5-2z m14 0c-2 0-5 0-7 2l-14 14c-3 3-3 8 0 11 4 4 9 4 12 0l14-13c3-4 3-9 0-12 0 0-2-2-5-2z m-14 70c-2 0-5 0-7 2-3 3-3 8 0 12l16 13c3 4 8 4 12 0 3-3 3-8 0-11l-14-14c-2-2-3-2-7-2z m14 0c-2 0-5 0-7 2l-14 14c-3 3-3 8 0 11 4 4 9 4 12 0l14-13c3-4 3-9 0-12 0-2-2-2-5-2z m-109-295l-52 0c-5 0-8 3-8 8l0 40c0 5 3 8 8 8l52 0c5 0 8-3 8-8l0-40c0-3-3-8-8-8z m-43 17l34 0 0 22-34 0z m217-17l-52 0c-5 0-8 3-8 8l0 40c0 5 3 8 8 8l52 0c5 0 8-3 8-8l0-40c0-3-5-8-8-8z m-43 17l34 0 0 22-34 0z"/>
<glyph glyph-name="clock" unicode="&#117;" d="M386 53l-260 0c-5 0-8 3-8 8l0 41c0 2 1 6 3 7 2 2 4 2 7 2 24 0 43 19 43 43l0 39c0 24-19 43-43 43-5 0-10 3-10 8l0 207c0 5 3 8 8 8l260 0c5 0 8-3 8-8l0-209c0-5-5-8-10-8-22 0-43-19-43-43l0-37c0-24 19-43 45-43 1 0 5 0 7-2 1-1 3-3 3-7l0-41c-2-5-5-8-10-8z m-251 17l242 0 0 24c-29 3-53 29-53 60l0 39c0 31 24 56 53 60l0 189-242 0 0-191c29-4 53-29 53-58l0-39c0-31-24-57-53-60z m121 253c-5 0-9 3-9 8l0 38c0 5 4 8 9 8 5 0 9-3 9-8l0-38c0-5-4-8-9-8z m0-6c-5 0-10 6-10 11 0 5 5 10 10 10 5 0 10-5 10-10 0-5-5-11-10-11z m0 18c-3 0-7-4-7-7 0-4 4-7 7-7 3 0 7 3 7 7 0 5-4 7-7 7z m0-14l-34 0c-5 0-9 3-9 8 0 6 4 9 9 9l34 0c5 0 9-3 9-9 0-5-4-8-9-8z m0-84c-51 0-92 41-92 92 0 52 41 93 92 93 51 0 92-41 92-93 0-51-41-92-92-92z m0 167c-41 0-75-34-75-75 0-41 34-75 75-75 41 0 75 34 75 75 0 41-34 75-75 75z m-9-209l18 0 0-50-18 0z m0 27l18 0 0-19-18 0z m23-99c0-8-6-14-14-14-8 0-14 6-14 14 0 7 6 14 14 14 8 0 14-7 14-14z"/>
<glyph glyph-name="coat-hanger" unicode="&#118;" d="M355 53l-198 0c-5 0-9 3-9 8l0 24c0 24 21 45 45 45l128 0c24 0 44-21 44-45l0-25c-1-4-5-7-10-7z m-189 17l182 0 0 17c0 15-12 27-27 27l-128 0c-16 0-27-12-27-27z m81 377l18 0 0-305-18 0z m9-31c-12 0-20 11-20 21 0 10 10 20 20 20 10 0 20-10 20-20 0-10-8-21-20-21z m0 26c-2 0-3-2-3-3 0-6 8-6 8 0-2 1-3 3-5 3z m-49-107c0-8-7-14-14-14-8 0-14 6-14 14 0 7 6 13 14 13 7 0 14-6 14-13z m-14-23c-12 0-21 11-21 21 0 10 11 20 21 20 10 0 20-10 20-20 0-10-8-21-20-21z m0 26c-2 0-4-2-4-3 0-6 9-6 9 0-2 1-3 3-5 3z m3-9l36-35m7 5l-36 36c0 0-2 1-2 1-1 4-3 5-8 5-10 0-10-12-4-15 0-2 2-2 2-3l36-36c2-2 3-2 7-2 3 0 5 0 7 2 1 3 1 8-2 12z m-32-26c0-7-7-14-14-14-8 0-14 7-14 14 0 8 6 14 14 14 7 0 14-6 14-14z m-14-22c-12 0-21 10-21 20 0 11 11 21 21 21 10 0 20-10 20-21 0-10-8-20-20-20z m0 25c-2 0-4-1-4-3 0-5 9-5 9 0-2 2-3 3-5 3z m3-8l36-36m7 5l-36 36c-2 0-2 2-3 2 0 3-4 7-9 7-10 0-10-14-3-17 0-2 1-4 1-6l36-35c2-2 4-2 7-2 4 0 5 0 7 2 3 5 3 10 0 13z m-32-25c0-8-7-14-14-14-8 0-14 6-14 14 0 7 6 13 14 13 7 0 14-6 14-13z m-14-23c-12 0-21 11-21 21 0 10 11 20 21 20 10 0 20-10 20-20 0-10-8-21-20-21z m0 26c-2 0-4-2-4-3 0-5 9-5 9 0-2 1-3 3-5 3z m3-8l36-36m7 5l-36 36c0 0-2 1-2 1 0 5-1 9-8 9-9 0-10-12-5-15 0-2 0-6 1-7l36-36c2-2 4-2 7-2 4 0 5 0 7 2 3 3 3 8 0 12z m94 210c0-8-6-14-14-14-7 0-14 6-14 14 0 7 7 13 14 13 8 0 14-6 14-13z m-14-21c-12 0-20 10-20 21 0 10 10 20 20 20 10 0 22-8 22-20 0-12-10-21-22-21z m0 26c-2 0-3-2-3-4 0-5 8-5 8 0 0 0-3 4-5 4z m-3-9l-36-37m44 54c-5 0-8-5-8-8-2 0-5 0-7-2l-36-37c-3-4-3-9 0-12 2-2 3-2 7-2 3 0 5 0 7 2l36 35c1 2 1 4 1 7 11 0 11 17 0 17z m9-75c0-7-6-13-14-13-7 0-14 6-14 13 0 8 7 14 14 14 8 0 14-6 14-14z m-14-20c-12 0-20 10-20 20 0 11 10 21 20 21 10 0 22-9 22-21 0-12-10-20-22-20z m0 25c-2 0-3-1-3-3 0-5 8-5 8 0 0 0-3 3-5 3z m-3-8l-36-38m43 55c-6 0-9-5-9-9-2 0-3-1-5-1l-36-38c-3-3-3-8 0-12 2-2 3-2 7-2 3 0 5 0 7 2l36 36c1 2 3 5 1 7 11 2 11 17-1 17z m10-75c0-8-6-14-14-14-7 0-14 6-14 14 0 7 7 13 14 13 8 0 14-6 14-13z m-14-21c-12 0-20 11-20 21 0 10 10 20 20 20 10 0 21-10 21-20 0-10-9-21-21-21z m0 26c-2 0-3-2-3-3 0-6 8-6 8 0 0 0-3 3-5 3z m-3-9l-36-37m43 48c-4 0-6-2-7-4-2 0-5 0-7-1l-36-36c-3-4-3-9 0-12 2-2 3-2 7-2 3 0 5 0 7 2l36 36c10 0 10 17 0 17z"/>
<glyph glyph-name="comfy-couch" unicode="&#119;" d="M432 159l-352 0c-17 0-29 12-29 27l0 116c0 15 14 29 29 29l46 0c5 0 9-3 9-8l0-70c0-7 5-12 12-12l218 0c7 0 12 5 12 12l0 71c0 5 4 9 9 9l46 0c15 0 29-14 29-29l0-116c0-17-12-29-29-29z m-352 157c-7 0-12-5-12-12l0-116c0-7 5-12 12-12l353 0c7 0 12 5 12 12l0 116c0 7-5 12-12 12l-37 0 0-62c0-15-14-29-29-29l-220 0c-16 0-29 14-29 29l0 62z m285-91l-218 0c-16 0-29 14-29 29l0 103c0 15 13 29 29 29l218 0c16 0 29-14 29-29l0-103c0-17-13-29-29-29z m-218 144c-7 0-12-5-12-12l0-103c0-7 5-12 12-12l218 0c7 0 12 5 12 12l0 103c0 7-5 12-12 12z m100 17l18 0 0-157-18 0z m-138-260l-34 0c-3 0-5 2-7 4-1 3-1 5 0 8l17 33c2 3 5 5 7 5l51 0c4 0 7-2 9-5 2-4 0-7-2-9l-34-31c-3-3-5-5-7-5z m-19 17l16 0 15 14-24 0z m347-17l-34 0c-2 0-4 0-5 2l-34 31c-4 1-4 7-2 8 2 4 5 5 8 5l52 0c3 0 6-1 6-5l17-30c2-4 2-6 0-9-3 0-5-2-8-2z m-31 17l16 0-9 14-24 0z"/>
<glyph glyph-name="couch" unicode="&#120;" d="M256 119c-128 0-205 0-205 50 0 51 135 84 205 84 70 0 205-33 205-84 0-50-77-50-205-50z m0 117c-75 0-188-35-188-67 0-32 79-32 188-32 109 0 188 0 188 32 0 32-113 67-188 67z m-196-76c-5 0-9 4-9 9l0 63c0 21 17 36 36 36 21 0 36-17 36-36 0-5-4-8-9-8-5 0-8 3-8 8 0 10-9 19-19 19-10 0-19-9-19-19l0-63c0-3-3-9-8-9z m392 0c-5 0-8 4-8 9l0 63c0 10-9 19-19 19-10 0-19-9-19-19 0-5-3-8-8-8-5 0-9 3-9 8 0 21 17 36 36 36 19 0 36-17 36-36l0-63c0-3-4-9-9-9z m-17 93c-5 0-8 3-8 8l0 68c0 43-34 77-77 77l-186 0c-43 0-77-34-77-77l0-68c0-5-3-8-8-8-6 0-11 3-11 8l0 68c0 52 43 94 94 94l186 0c51 0 94-42 94-94l0-68c2-5-3-8-7-8z m-283 20c-2 0-5 0-7 2-3 3-3 8 0 12l12 12c3 3 9 3 12 0 3-4 3-9 0-12l-12-12c0-2-3-2-5-2z m12 0c-2 0-5 0-7 2l-12 12c-3 3-3 8 0 12 3 3 9 3 12 0l12-12c3-4 3-9 0-12-2-2-3-2-5-2z m-12 58c-2 0-5 0-7 2-3 3-3 8 0 12l12 12c3 3 9 3 12 0 3-4 3-9 0-12l-12-12c0-2-3-2-5-2z m12 0c-2 0-5 0-7 2l-12 12c-3 3-3 8 0 12 3 3 9 3 12 0l12-12c3-4 3-9 0-12-2-2-3-2-5-2z m87-58c-2 0-5 0-7 2-3 3-3 8 0 12l12 12c3 3 9 3 12 0 3-4 3-9 0-12l-12-12c-2-2-3-2-5-2z m10 0c-2 0-5 0-7 2l-12 12c-3 3-3 8 0 12 4 3 9 3 12 0l12-12c4-4 4-9 0-12 0-2-1-2-5-2z m-10 58c-2 0-5 0-7 2-3 3-3 8 0 12l12 12c3 3 9 3 12 0 3-4 3-9 0-12l-12-12c-2-2-3-2-5-2z m10 0c-2 0-5 0-7 2l-12 12c-3 3-3 8 0 12 4 3 9 3 12 0l12-12c4-4 4-9 0-12 0-2-1-2-5-2z m87-58c-2 0-5 0-7 2-3 3-3 8 0 12l12 12c4 3 9 3 12 0 4-4 4-9 0-12l-12-12c0-2-1-2-5-2z m12 0c-2 0-5 0-7 2l-12 12c-3 3-3 8 0 12 4 3 9 3 12 0l12-12c4-4 4-9 0-12 0-2-3-2-5-2z m-12 58c-2 0-5 0-7 2-3 3-3 8 0 12l12 12c4 3 9 3 12 0 4-4 4-9 0-12l-12-12c0-2-1-2-5-2z m12 0c-2 0-5 0-7 2l-12 12c-3 3-3 8 0 12 4 3 9 3 12 0l12-12c4-4 4-9 0-12 0-2-3-2-5-2z m-215-244l-46 0c-5 0-9 3-9 9l0 32c0 5 4 9 9 9l44 0c5 0 11-4 11-9l0-32c0-6-6-9-9-9z m-37 17l29 0 0 15-29 0z m305-17l-44 0c-5 0-9 3-9 9l0 32c0 5 4 9 9 9l44 0c5 0 9-4 9-9l0-32c0-6-4-9-9-9z m-38 17l28 0 0 15-28 0z"/>
<glyph glyph-name="cupboard" unicode="&#121;" d="M393 80l-274 0c-5 0-8 4-8 9l0 363c0 4 3 9 8 9l274 0c5 0 8-4 8-9l0-363c0-5-3-9-8-9z m-265 17l258 0 0 347-258 0z m53-46l-43 0c-5 0-8 4-8 9l0 27c0 5 3 9 8 9l43 0c5 0 8-4 8-9l0-27c0-4-3-9-8-9z m-34 17l25 0 0 11-25 0z m227-17l-43 0c-5 0-8 4-8 9l0 27c0 5 3 9 8 9l43 0c5 0 8-4 8-9l0-27c0-4-3-9-8-9z m-34 17l25 0 0 11-25 0z m-84 12c-5 0-9 4-9 9l0 356c0 6 4 9 9 9 5 0 9-3 9-9l0-356c0-5-4-9-9-9z m-34 193l-14 0c-5 0-8 3-8 9 0 5 5 8 8 8l14 0c5 0 8-3 8-8 0-6-3-9-8-9z m82 0l-14 0c-5 0-8 3-8 9 0 5 3 8 8 8l14 0c5 0 8-3 8-8 0-6-5-9-8-9z"/>
<glyph glyph-name="cupboard-four-doors" unicode="&#122;" d="M451 398l-390 0c-5 0-8 3-8 8l0 41c0 5 3 9 8 9l391 0c5 0 9-4 9-9l0-41c-2-5-5-8-10-8z m-381 17l374 0 0 24-374 0z m340-326l-308 0c-5 0-8 3-8 8l0 309c0 5 3 9 8 9l308 0c5 0 8-4 8-9l0-309c0-5-3-8-8-8z m-299 17l290 0 0 292-290 0z m46-50l-34 0c-5 0-9 4-9 9l0 31c0 5 4 8 9 8l36 0c5 0 8-3 8-8l0-31c-1-5-5-9-10-9z m-26 17l19 0 0 14-19 0z m258-17l-36 0c-5 0-8 4-8 9l0 31c0 5 3 8 8 8l36 0c5 0 9-3 9-8l0-31c0-5-4-9-9-9z m-27 17l19 0 0 14-19 0z m-123 186l-101 0c-5 0-8 4-8 9l0 102c0 5 3 9 8 9l101 0c5 0 8-4 8-9l0-102c0-5-3-9-8-9z m-92 17l83 0 0 86-83 0z m227-17l-101 0c-5 0-8 4-8 9l0 102c0 5 3 9 8 9l101 0c5 0 8-4 8-9l0-102c0-5-3-9-8-9z m-92 17l83 0 0 86-83 0z m-43-153l-101 0c-5 0-8 3-8 8l0 103c0 5 3 8 8 8l101 0c5 0 8-3 8-8l0-103c0-3-3-8-8-8z m-92 17l83 0 0 85-83 0z m227-17l-101 0c-5 0-8 3-8 8l0 103c0 5 3 8 8 8l101 0c5 0 8-3 8-8l0-103c0-3-3-8-8-8z m-92 17l83 0 0 85-83 0z m-91 171l-5 0c-5 0-9 3-9 8 0 5 4 9 9 9l5 0c5 0 9-4 9-9 0-5-4-8-9-8z m135 0l-5 0c-5 0-9 3-9 8 0 5 4 9 9 9l5 0c5 0 9-4 9-9 0-5-4-8-9-8z m-135-134l-5 0c-5 0-9 4-9 9 0 5 4 9 9 9l5 0c5 0 9-4 9-9 0-5-4-9-9-9z m135 0l-5 0c-5 0-9 4-9 9 0 5 4 9 9 9l5 0c5 0 9-4 9-9 0-5-4-9-9-9z"/>
<glyph glyph-name="cupboard-two-doors" unicode="&#65;" d="M451 355l-390 0c-5 0-8 3-8 9l0 40c0 6 3 9 8 9l391 0c5 0 9-3 9-9l0-40c-2-6-5-9-10-9z m-381 17l374 0 0 24-374 0z m340-242l-308 0c-5 0-8 3-8 8l0 226c0 5 3 8 8 8l308 0c5 0 8-3 8-8l0-226c0-3-3-8-8-8z m-299 17l290 0 0 208-290 0z m46-48l-34 0c-5 0-9 3-9 9l0 30c0 5 4 9 9 9l36 0c5 0 8-4 8-9l0-30c-1-6-5-9-10-9z m-26 17l19 0 0 14-19 0z m258-17l-36 0c-5 0-8 3-8 9l0 30c0 5 3 9 8 9l36 0c5 0 9-4 9-9l0-30c0-6-4-9-9-9z m-27 17l19 0 0 14-19 0z m-123 55l-101 0c-5 0-8 3-8 8l0 154c0 5 3 8 8 8l101 0c5 0 8-3 8-8l0-154c0-5-3-8-8-8z m-92 17l83 0 0 136-83 0z m227-17l-101 0c-5 0-8 3-8 8l0 154c0 5 3 8 8 8l101 0c5 0 8-3 8-8l0-154c0-5-3-8-8-8z m-92 17l83 0 0 136-83 0z m-91 71l-5 0c-5 0-9 4-9 9 0 5 4 8 9 8l5 0c5 0 9-3 9-8 0-5-4-9-9-9z m135 0l-5 0c-5 0-9 4-9 9 0 5 4 8 9 8l5 0c5 0 9-3 9-8 0-5-4-9-9-9z"/>
<glyph glyph-name="cupboard-with-mirror" unicode="&#66;" d="M393 80l-274 0c-5 0-8 4-8 9l0 363c0 4 3 9 8 9l274 0c5 0 8-4 8-9l0-363c0-5-3-9-8-9z m-265 17l258 0 0 347-258 0z m53-46l-43 0c-5 0-8 4-8 9l0 27c0 5 3 9 8 9l43 0c5 0 8-4 8-9l0-27c0-4-3-9-8-9z m-34 17l25 0 0 11-25 0z m227-17l-43 0c-5 0-8 4-8 9l0 27c0 5 3 9 8 9l43 0c5 0 8-4 8-9l0-27c0-4-3-9-8-9z m-34 17l25 0 0 11-25 0z m-84 12c-5 0-9 4-9 9l0 356c0 6 4 9 9 9 5 0 9-3 9-9l0-356c0-5-4-9-9-9z m-34 193l-14 0c-5 0-8 3-8 9 0 5 5 8 8 8l14 0c5 0 8-3 8-8 0-6-3-9-8-9z m118-155l-28 0c-5 0-8 3-8 8 0 7-5 11-10 11-6 0-9 3-9 8l0 248c0 5 3 8 9 8 5 0 10 5 10 10 0 5 3 9 8 9l28 0c5 0 8-4 8-9 0-7 5-10 10-10 6 0 9-3 9-8l0-248c0-5-3-8-9-8-5 0-10-6-10-11 0-5-3-8-8-8z m-21 17l12 0c4 8 10 15 17 17l0 234c-8 3-15 8-17 17l-12 0c-3-9-10-16-17-17l0-234c9-4 15-9 17-17z"/>
<glyph glyph-name="cupboard-with-shelves" unicode="&#67;" d="M393 80l-274 0c-5 0-8 4-8 9l0 363c0 4 3 9 8 9l274 0c5 0 8-4 8-9l0-363c0-5-3-9-8-9z m-265 17l258 0 0 347-258 0z m53-46l-43 0c-5 0-8 4-8 9l0 27c0 5 3 9 8 9l43 0c5 0 8-4 8-9l0-27c0-4-3-9-8-9z m-34 17l25 0 0 11-25 0z m227-17l-43 0c-5 0-8 4-8 9l0 27c0 5 3 9 8 9l43 0c5 0 8-4 8-9l0-27c0-4-3-9-8-9z m-34 17l25 0 0 11-25 0z m-84 12c-5 0-9 4-9 9l0 356c0 6 4 9 9 9 5 0 9-3 9-9l0-356c0-5-4-9-9-9z m-34 193l-14 0c-5 0-8 3-8 9 0 5 5 8 8 8l14 0c5 0 8-3 8-8 0-6-3-9-8-9z m109-154l-14 0c-5 0-8 4-8 9 0 5 3 9 8 9l14 0c5 0 9-4 9-9 0-5-4-9-9-9z m62 38l-137 0c-5 0-9 3-9 9 0 5 4 8 9 8l137 0c5 0 8-3 8-8 0-6-3-9-8-9z m0 50l-137 0c-5 0-9 3-9 8 0 5 4 9 9 9l137 0c5 0 8-4 8-9 0-5-3-8-8-8z m0 49l-137 0c-5 0-9 3-9 9 0 5 4 8 9 8l137 0c5 0 8-3 8-8 0-6-3-9-8-9z m0 48l-137 0c-5 0-9 3-9 8 0 5 4 9 9 9l137 0c5 0 8-4 8-9 0-5-3-8-8-8z m0 49l-137 0c-5 0-9 4-9 9 0 5 4 8 9 8l137 0c5 0 8-3 8-8 0-5-3-9-8-9z m0 48l-137 0c-5 0-9 3-9 9 0 5 4 8 9 8l137 0c5 0 8-3 8-8 0-6-3-9-8-9z"/>
<glyph glyph-name="curtain" unicode="&#68;" d="M60 321c-4 0-9 3-9 8l0 123c0 5 5 9 9 9l123 0c5 0 8-4 8-9 0-71-58-131-131-131z m8 123l0-106c57 5 103 49 106 106z m115-393l-123 0c-4 0-9 4-9 9l0 191c0 5 4 8 9 8 39 0 129-18 131-198 0 0 0-1 0-1 0-5-3-9-8-9z m-115 17l106 0c-2 106-39 169-106 174z m-8 253c-4 0-9 3-9 8l0 123c0 5 5 9 9 9l59 0c6 0 9-4 9-9 0-73-29-131-68-131z m8 123l0-104c21 8 41 47 43 104z m51-393l-59 0c-4 0-9 4-9 9l0 191c0 5 4 8 9 8 44 0 68-70 68-198 0 0 0-1 0-1 0-5-3-9-9-9z m-51 17l43 0c0 113-21 162-43 173z m-17 244l29 0 0-17-29 0z m48-17l-39 0c-5 0-9 4-9 9 0 5 4 8 9 8l39 0c5 0 9-3 9-8 0-5-4-9-9-9z m-48-8l29 0 0-17-29 0z m48-17l-39 0c-4 0-9 3-9 8 0 5 4 9 9 9l39 0c5 0 9-4 9-9 0-5-4-8-9-8z m353 51c-71 0-131 60-131 131 0 5 3 9 8 9l123 0c4 0 9-4 9-9l0-123c0-5-5-8-9-8z m-114 123c3-57 49-101 106-106l0 106z m114-393l-123 0c-5 0-8 4-8 9 0 181 92 199 131 199 5 0 9-3 9-8l0-191c0-5-5-9-9-9z m-114 17l106 0 0 174c-67-5-104-68-106-174z m114 253c-37 0-68 58-68 131 0 5 3 9 9 9l59 0c4 0 9-4 9-9l0-123c0-5-5-8-9-8z m-51 123c2-57 22-96 43-104l0 104z m51-393l-59 0c-6 0-9 4-9 9 0 129 24 199 68 199 5 0 9-3 9-8l0-191c0-5-5-9-9-9z m-51 17l43 0 0 173c-22-11-43-60-43-173z m31 244l29 0 0-17-29 0z m20-17l-39 0c-5 0-9 4-9 9 0 5 4 8 9 8l39 0c5 0 9-3 9-8 0-5-5-9-9-9z m-20-8l29 0 0-17-29 0z m20-17l-39 0c-5 0-9 3-9 8 0 5 4 9 9 9l39 0c5 0 9-4 9-9 0-5-5-8-9-8z m-196 5c-5 0-9 3-9 8l0 169c0 5 4 9 9 9 5 0 9-4 9-9l0-169c0-3-4-8-9-8z m0-77c-17 0-31 14-31 31 0 17 14 30 31 30 17 0 31-13 31-30 0-17-14-31-31-31z m0 44c-9 0-14-6-14-13 0-9 7-14 14-14 9 0 14 7 14 14 0 8-5 13-14 13z m-36 219l72 0 0-17-72 0z"/>
<glyph glyph-name="desk" unicode="&#69;" d="M452 128l-215 0c-5 0-8 3-8 9l0 191-123 0 0-191c0-6-4-9-9-9l-37 0c-5 0-9 5-9 9l0 238c0 6 4 9 9 9l391 0c1 0 5-2 6-2 2 0 4-5 4-7l0-238c0-4-4-9-9-9z m-206 17l198 0 0 222-376 0 0-220 21 0 0 189c0 5 3 9 8 9l139 0c5 0 8-4 8-9l0-191z m169 22l-139 0c-5 0-8 4-8 9l0 162c0 5 3 8 8 8l139 0c5 0 8-3 8-8l0-162c0-5-5-9-8-9z m-132 17l121 0 0 145-121 0z m132 106l-139 0c-5 0-8 4-8 9 0 5 3 8 8 8l139 0c5 0 8-3 8-8 0-5-5-9-8-9z m0-43l-139 0c-5 0-8 4-8 9 0 5 3 9 8 9l139 0c5 0 8-4 8-9 0-5-5-9-8-9z m-65-40l-10 0c-5 0-9 3-9 8 0 5 4 9 9 9l10 0c5 0 8-4 8-9 0-5-3-8-8-8z"/>
<glyph glyph-name="desk-lamp" unicode="&#70;" d="M299 236l-185 0c-5 0-8 3-8 8 0 43 25 79 65 94l0 7c0 20 17 37 37 37 21 0 38-17 38-37l0-5c39-16 65-53 65-94-4-7-7-10-12-10z m-176 17l167 0c-3 32-25 61-58 71-3 2-5 5-5 9l0 12c0 10-9 20-20 20-12 0-21-8-21-20l0-12c0-4-2-7-5-9-33-10-55-37-58-71z m246-115l-17 0 0 237c0 38-31 69-69 69-37 0-68-31-68-69l0-1-17 0 0 1c0 48 39 86 85 86 46 0 86-39 86-86z m29-87l-198 0c-5 0-9 4-9 9l0 25c0 24 21 45 45 45l128 0c23 0 44-21 44-45l0-25c-2-5-5-9-10-9z m-190 17l183 0 0 17c0 16-12 28-27 28l-128 0c-16 0-28-12-28-28z m36 92l55 0 0-17-55 0z"/>
<glyph glyph-name="dining-chair" unicode="&#71;" d="M345 220l-178 0c-5 0-8 4-8 9l0 220c0 5 3 8 8 8l176 0c5 0 9-3 9-8l0-220c1-5-4-9-7-9z m-169 17l159 0 0 203-159 0z m205-80l-250 0c-5 0-8 3-8 9l0 63c0 5 3 8 8 8l250 0c5 0 8-3 8-8l0-63c0-6-3-9-8-9z m-241 17l232 0 0 46-232 0z m37-119l-30 0c-5 0-9 3-9 8l0 103c0 5 4 8 9 8l30 0c6 0 9-3 9-8l0-103c0-5-3-8-9-8z m-22 17l14 0 0 85-14 0z m210-17l-30 0c-6 0-9 3-9 8l0 103c0 5 3 8 9 8l30 0c5 0 9-3 9-8l0-103c0-5-4-8-9-8z m-22 17l14 0 0 85-14 0z m-148 47l122 0 0-17-122 0z m13 296l96 0 0-17-96 0z m0-43l96 0 0-17-96 0z m0-44l96 0 0-17-96 0z m0-43l96 0 0-17-96 0z"/>
<glyph glyph-name="dining-room" unicode="&#72;" d="M61 148c-1 0-1 0-3 0-5 2-7 7-5 11l34 90c2 4 5 5 9 5l80 0c5 0 8-3 8-8l0-91c0-5-3-8-8-8-5 0-9 3-9 8l0 82-65 0-32-83c-2-4-5-6-9-6z m35 89c-4 0-7 2-9 5l-34 110c0 6 2 10 7 12 3 1 8 0 10-6l34-109c2-5 0-10-5-10-2-2-2-2-3-2z m81-49l-100 0c-5 0-9 3-9 8 0 5 4 9 9 9l100 0c6 0 9-4 9-9 0-5-3-8-9-8z m274-40c-4 0-7 2-9 6l-32 83-67 0 0-82c0-5-3-8-8-8-6 0-9 3-9 8l0 91c0 5 3 8 9 8l80 0c3 0 7-1 8-5l34-90c2-5 0-9-5-11 0 0-1 0-1 0z m-35 89c0 0-1 0-3 0-5 2-7 7-5 10l34 110c2 5 7 7 10 5 5-2 7-7 5-10l-34-110c0-1-3-5-7-5z m19-49l-100 0c-6 0-9 3-9 8 0 5 3 9 9 9l100 0c5 0 9-4 9-9 0-5-4-8-9-8z m-162-40l-34 0c-5 0-9 4-9 9 0 5 4 9 9 9l34 0c5 0 9-4 9-9 0-5-4-9-9-9z m-17 0c-5 0-9 4-9 9l0 119c0 6 4 9 9 9 5 0 9-3 9-9l0-119c0-5-4-9-9-9z m90 120l-180 0c-6 0-9 3-9 8l0 35c0 5 3 8 9 8l180 0c6 0 9-3 9-8l0-35c0-5-3-8-9-8z m-172 17l164 0 0 17-164 0z"/>
<glyph glyph-name="dining-room-chair" unicode="&#73;" d="M343 220l-176 0c-5 0-8 4-8 9l0 220c0 5 3 8 8 8l176 0c5 0 9-3 9-8l0-220c0-5-4-9-9-9z m-167 17l159 0 0 203-159 0z m205-80l-250 0c-5 0-8 3-8 9l0 63c0 5 3 8 8 8l250 0c5 0 8-3 8-8l0-63c0-6-3-9-8-9z m-241 17l232 0 0 46-232 0z m37-119l-30 0c-5 0-9 3-9 8l0 103c0 5 4 8 9 8l30 0c6 0 9-3 9-8l0-103c0-5-3-8-9-8z m-22 17l14 0 0 85-14 0z m210-17l-30 0c-6 0-9 3-9 8l0 103c0 5 3 8 9 8l30 0c5 0 9-3 9-8l0-103c0-5-4-8-9-8z m-22 17l14 0 0 85-14 0z m-148 47l122 0 0-17-122 0z m148 279l-176 0c-5 0-8 3-8 8 0 5 3 9 8 9l176 0c5 0 9-4 9-9 0-5-4-8-9-8z m0-43l-176 0c-3 0-8 3-8 9 0 5 3 8 8 8l176 0c5 0 9-3 9-8 0-6-4-9-9-9z m0-44l-176 0c-5 0-8 3-8 8 0 5 3 9 8 9l176 0c5 0 9-4 9-9 0-5-4-8-9-8z m0-43l-176 0c-5 0-8 3-8 8 0 6 3 9 8 9l176 0c5 0 9-3 9-9 0-5-4-8-9-8z"/>
<glyph glyph-name="director-chair" unicode="&#74;" d="M399 179l-286 0c-5 0-9 4-9 9l0 75c0 5 4 8 9 8l285 0c5 0 8-3 8-8l0-75c2-5-2-9-7-9z m-278 17l268 0 0 58-268 0z m241 58l-212 0c-5 0-8 4-8 9l0 188c0 5 3 8 8 8 5 0 9-3 9-8l0-180 196 0 0 180c0 5 3 8 9 8 5 0 8-3 8-8l0-188c-2-5-5-9-10-9z m0 57l-212 0c-5 0-8 3-8 8l0 109c0 5 3 9 8 9l214 0c5 0 8-4 8-9l0-109c-2-5-5-8-10-8z m-203 17l196 0 0 92-196 0z m0-275c-4 0-7 2-7 5-2 3 0 9 3 12l202 104c3 2 8 0 12-3 1-4 0-9-4-12l-203-104c-2-2-3-2-3-2z m194 0c-1 0-3 0-3 2l-202 102c-3 2-5 7-3 12 2 3 7 5 12 3l201-104c4-1 6-7 4-12-2-1-5-3-9-3z m-240 229c-5 0-9 3-9 8l0 10-37 0c-6 0-9 4-9 9 0 5 3 8 9 8l46 0c5 0 8-3 8-8l0-19c0-5-3-8-8-8z m286 0c-5 0-8 3-8 8l0 19c0 5 3 8 8 8l46 0c6 0 9-3 9-8 0-5-3-9-9-9l-37 0 0-10c0-5-4-8-9-8z"/>
<glyph glyph-name="door" unicode="&#75;" d="M357 131l-202 0c-5 0-8 4-8 9l0 311c0 5 3 8 8 8l203 0c6 0 9-3 9-8l0-313c-2-3-5-7-10-7z m-193 17l186 0 0 294-186 0z m-9-17c-1 0-3 0-5 2-2 2-3 5-3 7l0 311c0 5 3 8 8 8l108 0c5 0 8-3 8-8l0-262c0-3-1-6-5-8l-107-51c-2 1-4 1-4 1z m9 311l0-290 90 43 0 247z m44-137c-3 0-7 2-8 6-2 3 0 8 3 12l21 10c3 2 8 0 12-4 1-3 0-8-4-12l-20-10c0-2-2-2-4-2z m236-252c0 0-2 0 0 0l-374 0c-3 0-7 2-9 5-1 3 0 7 2 9l85 78c2 2 4 2 6 2l203 0c1 0 3 0 5-2l83-77c4-1 6-3 6-7 1-5-4-8-7-8z m-354 17l330 0-67 61-194 0z"/>
<glyph glyph-name="downstairs" unicode="&#76;" d="M399 268l-182 0c-5 0-9 3-9 8l0 67c0 5 4 9 9 9l182 0c5 0 9-4 9-9l0-67c0-5-4-8-9-8z m-174 17l166 0 0 50-166 0z m123-84l-184 0c-5 0-9 4-9 9l0 66c0 6 4 9 9 9l182 0c6 0 9-3 9-9l0-66c2-5-3-9-7-9z m-176 17l166 0 0 50-166 0z m123-83l-182 0c-5 0-9 3-9 8l0 67c0 5 4 8 9 8l182 0c5 0 9-3 9-8l0-67c0-5-4-8-9-8z m-174 17l166 0 0 49-166 0z m121-84l-182 0c-5 0-9 4-9 9l0 66c0 5 4 9 9 9l182 0c5 0 9-4 9-9l0-66c0-5-4-9-9-9z m-174 17l166 0 0 50-166 0z m384-17l-259 0c-5 0-9 4-9 9 0 5 4 8 9 8l251 0 0 250-113 0c-5 0-8 3-8 8 0 5 3 9 8 9l121 0c5 0 9-4 9-9l0-268c0-3-4-7-9-7z m-300 317l13-12-68-68-12 12z m34 32l12-12-18-18-13 12z m30 31l12-12-18-18-12 12z m-81-146l-45 0c-1 0-5 2-6 2-2 0-2 3-2 7l0 44c0 5 3 9 8 9 6 0 9-4 9-9l0-36 36 0c5 0 8-3 8-8 0-6-3-9-8-9z"/>
<glyph glyph-name="drawers" unicode="&#77;" d="M451 355l-390 0c-5 0-8 3-8 9l0 40c0 6 3 9 8 9l391 0c5 0 9-3 9-9l0-40c-2-6-5-9-10-9z m-381 17l374 0 0 24-374 0z m340-242l-308 0c-5 0-8 3-8 8l0 226c0 5 3 8 8 8l308 0c5 0 8-3 8-8l0-226c0-3-3-8-8-8z m-299 17l290 0 0 208-290 0z m46-48l-34 0c-5 0-9 3-9 9l0 30c0 5 4 9 9 9l36 0c5 0 8-4 8-9l0-30c-1-6-5-9-10-9z m-26 17l19 0 0 14-19 0z m258-17l-36 0c-5 0-8 3-8 9l0 30c0 5 3 9 8 9l36 0c5 0 9-4 9-9l0-30c0-6-4-9-9-9z m-27 17l19 0 0 14-19 0z m-123 147l-101 0c-5 0-8 3-8 8l0 64c0 5 3 8 8 8l101 0c5 0 8-3 8-8l0-64c0-5-3-8-8-8z m-92 17l83 0 0 44-83 0z m227-114l-236 0c-5 0-8 3-8 8l0 63c0 5 3 9 8 9l236 0c5 0 8-4 8-9l0-63c0-5-3-8-8-8z m-227 17l218 0 0 46-218 0z m227 80l-101 0c-5 0-8 3-8 8l0 64c0 5 3 8 8 8l101 0c5 0 8-3 8-8l0-64c0-5-3-8-8-8z m-92 17l83 0 0 44-83 0z m-91 14l-5 0c-5 0-9 3-9 8 0 5 4 9 9 9l5 0c5 0 9-4 9-9 0-5-4-8-9-8z m67-98l-5 0c-6 0-9 4-9 9 0 5 3 8 9 8l5 0c5 0 8-3 8-8 0-5-3-9-8-9z m68 98l-5 0c-5 0-9 3-9 8 0 5 4 9 9 9l5 0c5 0 9-4 9-9 0-5-4-8-9-8z"/>
<glyph glyph-name="dresser" unicode="&#78;" d="M384 94l-256 0c-26 0-44 20-44 44l0 277c-2 25 18 46 44 46l256 0c26 0 44-21 44-45l0-276c2-26-18-46-44-46z m-256 350c-15 0-29-12-29-29l0-277c0-15 12-27 27-27l256 0c16 0 28 12 28 27l0 277c0 15-12 27-28 27l-254 0z m294-234l-332 0c-5 0-8 3-8 8l0 117c0 5 3 8 8 8l330 0c5 0 8-3 8-8l0-117c2-5-3-8-6-8z m-323 17l312 0 0 99-312 0z m126 174l62 0 0-17-62 0z m0-116l62 0 0-17-62 0z m0-116l62 0 0-17-62 0z m-68-118l-29 0c-5 0-9 4-9 9l0 42c0 6 4 9 9 9l63 0c4 0 7-2 9-5 1-4 1-7-2-9l-34-42c-2-2-4-4-7-4z m-20 17l17 0 20 26-37 0z m247-17l-29 0c-3 0-5 2-7 4l-34 42c-2 2-2 7-2 9 2 3 5 5 9 5l63 0c5 0 9-3 9-9l0-42c0-5-4-9-9-9z m-26 17l17 0 0 26-37 0z"/>
<glyph glyph-name="egg-chair" unicode="&#79;" d="M256 135c-138 0-152 85-152 123 0 44 21 114 53 179 7 15 20 24 38 24l122 0c18 0 31-9 40-24 32-65 53-135 53-179-2-38-16-123-154-123z m-61 309c-11 0-19-5-24-14-31-63-52-130-52-172 0-40 18-106 135-106 118 0 135 66 135 106 0 42-20 109-51 172-2 9-10 14-21 14z m61-181c-15 0-29 2-41 2-12 1-24 1-32 1-4 0-6 0-7 4-2 1-4 5-2 6 3 31 17 72 34 111 2 2 5 6 9 6l78 0c4 0 7-2 9-6 17-37 31-78 34-109 0-2 0-2 0-3 0-5-3-9-9-9-8 0-18 0-32-1-12 0-26-2-41-2z m-63 20c7 0 15 0 24-1 24-2 54-2 78 0 9 0 17 1 24 1-5 26-15 60-29 92l-68 0c-14-32-24-66-29-92z m63-80c-24 0-43 4-56 10-4 2-7 7-5 11 1 3 6 6 10 5 15-5 32-9 49-9 5 0 9-3 9-8 0-5-2-9-7-9z m0 0c-5 0-9 4-9 9 0 5 4 8 9 8 19 0 36 4 49 9 4 1 9 0 11-5 1-4 0-9-5-11-12-6-31-10-55-10z m0 0c-56 0-101 24-101 56 0 24 26 24 34 24 7 0 18 0 28-1 24-2 54-2 78 0 10 0 19 1 28 1 8 0 34 0 34-24 0-30-45-56-101-56z m-67 63c-17 0-17-3-17-7 0-18 35-39 84-39 49 0 84 21 84 39 0 4 0 7-17 7-7 0-16 0-26-1-24-2-56-2-82 0-8 1-17 1-26 1z m-59-215c-2 0-2 0-4 0-5 2-7 7-5 10l22 70c2 6 7 7 11 6 5-2 6-7 5-11l-22-70c0-3-4-5-7-5z m63 22c0 0-2 0 0 0-5 0-9 6-9 11l5 35c0 6 6 9 11 7 5 0 8-5 7-10l-6-36c0-3-5-7-8-7z m189-22c-3 0-7 2-8 5l-22 70c-2 5 1 9 5 11 5 1 8-2 10-6l22-70c2-5-2-8-5-10 0 0 0 0-2 0z m-63 22c-3 0-8 4-8 7l-6 36c0 5 4 9 7 10 5 0 9-3 11-7l5-35c0-5-4-9-9-11z"/>
<glyph glyph-name="energy-efficient-lightbulb" unicode="&#80;" d="M309 89l-106 0c-32 0-60 27-60 59l0 38c0 5 4 9 9 9l208 0c5 0 9-4 9-9l0-38c0-32-28-59-60-59z m-149 88l0-29c0-23 19-42 43-42l106 0c24 0 43 19 43 42l0 29z m142-128l-90 0c-5 0-9 4-9 9l0 39c0 5 4 9 9 9l90 0c5 0 9-4 9-9l0-39c0-3-6-9-9-9z m-84 18l74 0 0 22-74 0z m47 121l-18 0 0 227c0 17-13 30-30 30-17 0-29-13-29-30l0-227-17 0 0 227c0 25 20 48 47 48 28 0 48-21 48-48l0-227z m76 0l-17 0 0 227c0 17-13 30-30 30-18 0-31-13-31-30l0-227-17 0 0 227c0 25 20 48 48 48 25 0 47-21 47-48z"/>
<glyph glyph-name="frame" unicode="&#81;" d="M398 51l-284 0c-18 0-34 16-34 34l0 284c0 18 16 34 34 34l282 0c19 0 34-16 34-34l0-282c2-20-14-36-32-36z m-284 335c-10 0-17-9-17-17l0-282c0-10 9-17 17-17l282 0c10 0 17 9 17 17l0 282c0 10-9 17-17 17z m258-284l-232 0c-5 0-9 4-9 9l0 232c0 5 4 9 9 9l232 0c5 0 9-4 9-9l0-232c0-5-4-9-9-9z m-224 17l216 0 0 216-216 0z m137 291l-29 30-29-30-12 12 36 35c3 4 8 4 12 0l36-35z m-145-275c-2 0-5 0-7 2-3 3-3 8 0 11l67 67c3 3 8 3 12 0l30-31 70 70c2 2 4 2 7 2 2 0 5-2 7-2l53-53c3-3 3-8 0-12-4-3-9-3-12 0l-48 48-70-70c-3-3-8-3-12 0l-30 31-62-61c-2-2-3-2-5-2z m102 106c-22 0-39 17-39 39 0 22 17 39 39 39 23 0 40-17 40-39 0-21-17-39-40-39z m0 63c-12 0-22-10-22-22 0-12 10-23 22-23 12 0 23 11 23 23 0 12-11 22-23 22z"/>
<glyph glyph-name="furnace" unicode="&#82;" d="M451 87l-390 0c-5 0-8 3-8 9l0 290c0 22 17 39 39 39l328 0c22 0 39-17 39-39l0-290c0-6-3-9-8-9z m-381 17l372 0 0 282c0 12-10 22-22 22l-328 0c-12 0-22-10-22-22z m305-17l-238 0c-6 0-9 3-9 9l0 179c0 15 12 27 27 27l202 0c15 0 27-12 27-27l0-179c0-6-3-9-9-9z m-230 17l222 0 0 171c0 5-5 10-10 10l-202 0c-5 0-10-5-10-10z m111-17c-36 0-65 29-65 65 0 15 5 29 14 41l42 60c2 1 4 3 7 3 4 0 5-2 7-3l44-60c9-12 14-26 14-41 2-36-27-65-63-65z m0 145l-36-49c-7-9-10-19-10-31 0-26 22-48 48-48 25 0 47 22 47 48 0 10-3 20-10 29z m0-145c-20 0-36 17-36 36 0 8 4 17 9 22l22 29c2 2 3 3 7 3 3 0 5-1 7-3l22-29c5-7 8-14 8-22-3-19-19-36-39-36z m0 70l-15-20c-2-4-5-7-5-12 0-11 8-19 18-19 11 0 19 8 19 19 0 5-2 10-5 12z m-101 205l-44 0c-5 0-9 3-9 8 0 5 4 9 9 9l44 0c5 0 9-4 9-9 0-5-4-8-9-8z m45 0l-11 0c-5 0-8 3-8 8 0 5 3 9 8 9l11 0c5 0 8-4 8-9 0-5-3-8-8-8z m37 0l-10 0c-5 0-9 3-9 8 0 5 4 9 9 9l10 0c5 0 9-4 9-9 0-5-4-8-9-8z m36 0l-10 0c-5 0-9 3-9 8 0 5 4 9 9 9l10 0c5 0 9-4 9-9 0-5-4-8-9-8z m128-38l-44 0c-5 0-9 4-9 9 0 5 4 8 9 8l44 0c5 0 9-3 9-8 0-5-4-9-9-9z m-80 0l-10 0c-6 0-9 4-9 9 0 5 5 8 10 8l11 0c5 0 8-3 8-8 0-5-5-9-10-9z m-36 0l-10 0c-5 0-9 4-9 9 0 5 4 8 9 8l10 0c5 0 9-3 9-8 0-5-4-9-9-9z m-38 0l-8 0c-5 0-9 4-9 9 0 5 4 8 9 8l10 0c5 0 9-3 9-8 0-5-5-9-11-9z"/>
<glyph glyph-name="illuminated-lightbulb" unicode="&#83;" d="M300 114l-87 0c-5 0-8 4-8 9 0 22-9 44-24 61-21 21-33 48-33 77 0 60 48 108 108 108 60 0 108-48 108-108 0-29-12-56-33-77-15-17-22-37-22-59 0-6-4-11-9-11z m-80 17l72 0c2 24 12 46 27 64 19 17 27 41 27 64 0 50-41 91-90 91-49 0-90-41-90-91 0-23 10-47 27-64 15-18 25-40 27-64z m27 74l18 0 0-82-18 0z m-11-14c-2 0-6 2-7 2l-21 22 12 12 16-15 15 15 12-12-21-22c-3-2-5-2-6-2z m40 0c-1 0-5 2-6 2l-21 22 12 12 15-15 16 15 12-12-21-22c-1-2-3-2-7-2z m-63-92l86 0 0-17-86 0z m43-48c-15 0-27 12-27 28l0 10 17 0 0-10c0-7 5-11 10-11 7 0 10 5 10 11l0 10 17 0 0-10c0-14-12-28-27-28z m-9 401l18 0 0-44-18 0z m114-40l12-12-31-31-12 12z m25-74l27 0 0-17-27 0z m-287 0l27 0 0-17-27 0z m52 75l32-32-12-12-32 32z"/>
<glyph glyph-name="ladder" unicode="&#84;" d="M99 51c-2 0-2 0-3 0-6 2-7 7-4 12l178 393c1 5 6 7 12 3 5-2 6-7 3-12l-177-392c-4-2-6-4-9-4z m137 0c-2 0-2 0-4 0-5 2-7 7-3 12l177 393c2 5 7 7 12 3 5-2 7-7 4-12l-178-392c-2-2-5-4-8-4z m160 355l-138 0c-5 0-9 4-9 9 0 5 4 8 9 8l138 0c5 0 8-3 8-8 0-5-3-9-8-9z m-21-46l-136 0c-5 0-9 4-9 9 0 5 4 8 9 8l136 0c6 0 9-3 9-8 0-5-3-9-9-9z m-20-46l-138 0c-5 0-9 3-9 9 0 5 4 8 9 8l138 0c5 0 9-3 9-8 0-6-4-9-9-9z m-20-44l-139 0c-5 0-8 3-8 8 0 5 3 9 8 9l139 0c5 0 8-4 8-9 0-5-3-8-8-8z m-21-46l-138 0c-5 0-9 3-9 8 0 5 4 9 9 9l138 0c5 0 9-4 9-9 0-5-4-8-9-8z m-20-47l-139 0c-5 0-8 4-8 9 0 5 3 9 8 9l139 0c5 0 8-4 8-9 0-5-3-9-8-9z m-21-46l-138 0c-5 0-9 4-9 9 0 5 4 8 9 8l138 0c5 0 9-3 9-8 0-5-4-9-9-9z m-20-46l-139 0c-5 0-8 4-8 9 0 5 5 8 8 8l139 0c5 0 8-3 8-8 0-5-3-9-8-9z"/>
<glyph glyph-name="lightbulb-1" unicode="&#85;" d="M299 82l-86 0c-27 0-49 22-49 49l0 31c0 5 3 9 8 9l169 0c5 0 9-4 9-9l0-31c0-25-24-49-51-49z m-120 73l0-22c0-19 16-32 33-32l85 0c19 0 32 15 32 32l0 22z m115-104l-74 0c-5 0-8 4-8 9l0 32c0 5 3 9 8 9l74 0c5 0 8-4 8-9l0-32c0-5-5-9-8-9z m-67 17l56 0 0 16-56 0z m92 203l3-17-130-20-3 17z m1 47l2-17-129-20-3 17z m-1 47l3-17-130-20-3 17z m1 47l2-17-130-20-2 17z m-73 40l18 0 0-30-18 0z m48-276l-17 0 0 12c0 15 12 27 27 27l0-17c-6 0-10-5-10-10z m-61 0l-17 0 0 12c0 7-5 10-10 10l0 17c15 0 27-12 27-27z"/>
<glyph glyph-name="lightbulb-2" unicode="&#86;" d="M311 147l-110 0c-5 0-8 3-8 8 0 29-10 57-29 77-26 26-39 58-39 94-2 75 58 135 131 135 73 0 133-60 133-133 0-36-14-70-39-96-19-20-29-48-29-77-2-3-5-8-10-8z m-101 17l94 0c1 29 13 58 34 80 22 22 36 51 36 84 0 63-51 116-116 116-63 0-116-51-116-116 0-31 12-62 34-82 20-24 32-51 34-82z m89-113l-86 0c-15 0-27 12-27 28l0 58c0 15 12 27 27 27l86 0c15 0 27-12 27-27l0-57c2-15-12-29-27-29z m-86 96c-6 0-10-5-10-10l0-57c0-7 5-10 10-10l86 0c6 0 10 5 10 10l0 57c0 6-5 10-10 10z m34 111l18 0 0-101-18 0z m-18 12c-2 0-5 1-7 1l-27 28 12 12 20-21 20 21 12-12-27-28c2-1 0-1-3-1z m54 0c-1 0-5 1-7 1l-27 28 12 12 21-21 20 21 12-12-27-28c0-1-2-1-4-1z m-90-140l124 0 0-17-124 0z m0-29l124 0 0-17-124 0z"/>
<glyph glyph-name="lightbulb-3" unicode="&#87;" d="M311 148l-110 0c-5 0-8 4-8 9 0 29-10 56-29 77-26 25-39 58-39 94-2 75 58 133 131 133 73 0 133-60 133-133 0-36-14-70-39-96-19-20-29-48-29-77-2-3-5-7-10-7z m-101 18l94 0c1 29 13 58 34 80 22 22 36 51 36 83-2 64-55 115-118 115-63 0-116-51-116-116 0-31 12-62 34-82 22-22 34-51 36-80z m37 92l18 0 0-101-18 0z m-18 12c-2 0-5 1-7 1l-27 28 12 12 20-21 20 21 12-12-23-26c-2-2-4-3-7-3z m54 0c-1 0-5 1-7 1l-27 28 12 12 21-21 20 21 12-12-26-26c-1-2-3-3-5-3z m-80-133l106 0 0-18-106 0z m0-31l106 0 0-17-106 0z m53-55c-19 0-32 16-32 33l0 13 17 0 0-13c0-9 6-16 15-16 9 0 15 7 15 16l0 13 17 0 0-13c0-19-13-33-32-33z"/>
<glyph glyph-name="loveseat" unicode="&#88;" d="M418 142l-324 0c-22 0-41 18-41 41l0 63c0 25 20 46 46 46 26 0 46-21 46-46l0-4 222 0 0 4c0 25 20 46 46 46 26 0 46-21 46-46l0-63c0-23-19-41-41-41z m-319 133c-15 0-29-14-29-29l0-63c0-14 10-24 24-24l324 0c14 0 24 10 24 24l0 63c0 15-14 29-29 29-15 0-29-14-29-29l0-12c0-5-3-9-9-9l-238 0c-6 0-9 4-9 9l0 12c0 15-14 29-29 29z m49-161l-49 0c-5 0-9 4-9 9l0 29c0 5 4 8 9 8l49 0c6 0 9-3 9-8l0-29c0-5-5-9-9-9z m-40 17l32 0 0 12-32 0z m305-17l-49 0c-6 0-9 4-9 9l0 29c0 5 3 8 9 8l49 0c5 0 9-3 9-8l0-29c0-5-4-9-9-9z m-41 17l32 0 0 12-32 0z m60 144c-5 0-9 3-9 8l0 36c0 34-27 63-63 63l-210 0c-34 0-63-27-63-63l0-36c0-5-3-8-8-8-6 0-9 3-9 8l0 36c0 45 36 80 80 80l210 0c44 0 80-35 80-80l0-36c0-5-3-8-8-8z m-176-50c-5 0-9 4-9 9l0 102c0 5 4 9 9 9 5 0 9-4 9-9l0-102c0-5-4-9-9-9z m0 128c-2 0-3 0-7 2-2 2-2 3-2 7 0 3 0 5 2 7 4 3 9 3 12 0 2-2 4-4 4-7 0-4-2-4-2-7-2-2-5-2-7-2z"/>
<glyph glyph-name="mirror" unicode="&#89;" d="M218 353c-1 0-5 0-6 2-4 3-4 9 0 12l12 12c3 3 8 3 12 0 3-4 3-9 0-12l-12-12c0 0-4-2-6-2z m7-44c-1 0-5 0-7 2-3 3-3 8 0 12l12 12c4 3 9 3 12 0 4-4 4-9 0-12l-12-12c-1-2-3-2-5-2z m36 36c-2 0-5 0-7 1-3 4-3 9 0 12l12 12c4 4 9 4 12 0 4-3 4-8 0-12l-12-12c0 0-1-1-5-1z m87-292l-184 0c-19 0-36 15-36 36l0 334c0 19 15 36 36 36l184 0c19 0 36-15 36-36l0-336c0-19-15-34-36-34z m-184 389c-10 0-19-9-19-19l0-336c0-10 9-19 19-19l184 0c10 0 19 9 19 19l0 336c0 10-9 19-19 19z m167-343l-150 0c-5 0-9 3-9 9l0 296c0 6 4 9 9 9l150 0c5 0 9-3 9-9l0-296c0-6-4-9-9-9z m-142 17l134 0 0 280-134 0z"/>
<glyph glyph-name="one-door-cupboard" unicode="&#90;" d="M393 80l-274 0c-5 0-8 4-8 9l0 363c0 4 3 9 8 9l274 0c5 0 8-4 8-9l0-363c0-5-3-9-8-9z m-265 17l258 0 0 347-258 0z m53-46l-43 0c-5 0-8 4-8 9l0 27c0 5 3 9 8 9l43 0c5 0 8-4 8-9l0-27c0-4-3-9-8-9z m-34 17l25 0 0 11-25 0z m227-17l-43 0c-5 0-8 4-8 9l0 27c0 5 3 9 8 9l43 0c5 0 8-4 8-9l0-27c0-4-3-9-8-9z m-34 17l25 0 0 11-25 0z m-84 12c-5 0-9 4-9 9l0 356c0 6 4 9 9 9 5 0 9-3 9-9l0-356c0-5-4-9-9-9z m-34 193l-14 0c-5 0-8 3-8 9 0 5 5 8 8 8l14 0c5 0 8-3 8-8 0-6-3-9-8-9z m109-154l-14 0c-5 0-8 4-8 9 0 5 3 9 8 9l14 0c5 0 9-4 9-9 0-5-4-9-9-9z m62 38l-137 0c-5 0-9 3-9 9 0 5 4 8 9 8l137 0c5 0 8-3 8-8 0-6-3-9-8-9z m-69 0c-5 0-8 3-8 9l0 279c0 6 3 9 8 9 5 0 9-3 9-9l0-279c0-6-4-9-9-9z"/>
<glyph glyph-name="oval-mirror" unicode="&#48;" d="M256 51c-82 0-147 92-147 205 0 113 67 205 147 205 80 0 147-92 147-205 0-113-65-205-147-205z m0 393c-72 0-130-84-130-188 0-104 58-188 130-188 72 0 130 84 130 188 0 104-58 188-130 188z m0-331c-58 0-104 64-104 143 0 79 46 143 104 143 58 0 104-64 104-143 0-79-46-143-104-143z m0 269c-48 0-87-56-87-126 0-70 39-126 87-126 48 0 87 56 87 126 0 70-39 126-87 126z m-43-71c-1 0-5 0-6 1-4 4-4 9 0 12l11 12c4 4 9 4 12 0 4-3 4-8 0-12l-12-12c-1 0-3-1-5-1z m7-45c-2 0-5 0-7 2-3 3-3 8 0 12l12 12c4 3 9 3 12 0 4-4 4-9 0-12l-12-12c-1-2-3-2-5-2z m36 36c-2 0-5 0-7 2-3 3-3 8 0 12l12 12c4 3 9 3 12 0 3-4 3-9 0-12l-12-12c0 0-3-2-5-2z"/>
<glyph glyph-name="plant" unicode="&#49;" d="M312 53l-114 0c-3 0-7 2-9 5l-44 133c-2 4 0 5 2 9 1 1 3 3 7 3l203 0c3 0 5-2 7-3 1-2 1-5 1-9l-44-133c-2-3-4-5-9-5z m-107 17l102 0 39 116-179 0z m51 164c-43 0-79 34-79 78 0 21 9 41 24 55-5 8-8 19-8 29 0 34 27 61 61 61 34 0 62-27 62-61 0-10-4-21-9-29 16-15 24-34 24-55 4-42-32-78-75-78z m0 208c-26 0-44-20-44-44 0-11 3-19 8-26 2-5 2-10-2-14-13-12-22-29-22-47 0-35 28-62 62-62 34 0 61 27 61 62 0 18-8 35-22 47-7 4-7 9-5 12 5 9 8 17 8 26 0 26-18 46-44 46z m-9-212l18 0 0-22-18 0z m0 60l18 0 0-48-18 0z m9-14c-2 0-5 0-7 2l-19 19c-3 3-3 8 0 12 4 3 9 3 12 0l12-12 12 12c4 3 9 3 12 0 4-4 4-9 0-12l-19-19c2-2-1-2-3-2z"/>
<glyph glyph-name="round-plant" unicode="&#50;" d="M312 53l-114 0c-3 0-7 2-9 5l-44 133c-2 4 0 5 2 9 1 1 3 3 7 3l203 0c3 0 5-2 7-3 1-2 1-5 1-9l-44-133c-2-3-5-5-9-5z m-107 17l102 0 39 116-179 0z m42 160l18 0 0-22-18 0z m0 82l18 0 0-70-18 0z m9-13c-2 0-5 1-7 1l-19 19c-3 4-3 9 0 12 4 4 9 4 12 0l12-12 12 12c4 4 9 4 12 0 4-3 4-8 0-12l-19-19c2-1-1-1-3-1z m0-65c-63 0-113 51-113 112 0 62 52 113 113 113 61 0 113-51 113-113 0-61-50-112-113-112z m0 208c-53 0-96-43-96-96 0-52 43-95 96-95 53 0 96 43 96 95 0 53-43 96-96 96z"/>
<glyph glyph-name="shelf" unicode="&#51;" d="M452 128l-392 0c-5 0-9 3-9 9l0 56c0 5 4 8 9 8l392 0c5 0 9-3 9-8l0-56c0-6-4-9-9-9z m-384 17l376 0 0 39-376 0z m45-32l42 0 0-17-42 0z m242 0l43 0 0-17-43 0z m-212 71l-58 0c-5 0-8 4-8 9l0 162c0 5 3 9 8 9l58 0c5 0 9-4 9-9l0-162c0-5-4-9-9-9z m-49 17l41 0 0 145-41 0z m107-17l-58 0c-5 0-8 4-8 9l0 215c0 5 3 8 8 8l58 0c6 0 9-3 9-8l0-213c0-7-3-11-9-11z m-49 17l41 0 0 198-41 0z m20 159l29 0 0-17-29 0z m0-32l29 0 0-17-29 0z m0-33l29 0 0-17-29 0z m81-107c-2 0-2 0-4 0-2 1-3 3-5 5l-51 145c-2 5 0 8 5 10l36 12c2 0 5 0 7 0 1-2 3-3 5-5l51-145c2-5 0-9-5-10l-38-12c0 0-1 0-1 0z m-41 147l44-130 19 7-45 129z m80-147c-2 0-2 0-4 0-1 1-3 3-5 5l-51 145c-2 5 0 8 5 10l36 12c2 0 5 0 7 0 2-2 3-3 5-5l51-145c2-5 0-9-5-10l-37-12c0 0-2 0-2 0z m-41 147l44-130 19 7-44 129z m80-147c-2 0-2 0-3 0-2 1-4 3-5 5l-52 145c-1 5 0 8 5 10l36 12c2 0 5 0 7 0 2-2 4-3 5-5l51-145c2-5 0-9-5-10l-37-12c0 0-2 0-2 0z m-41 147l45-130 18 7-44 129z"/>
<glyph glyph-name="shower" unicode="&#52;" d="M364 53l-216 0c-17 0-30 14-30 31l0 344c0 17 13 31 30 31l216 0c17 0 30-14 30-31l0-343c2-18-13-32-30-32z m-216 389c-8 0-13-7-13-14l0-343c0-8 7-13 13-13l216 0c8 0 13 7 13 13l0 343c0 9-7 14-13 14z m118-38l-17 0 0 6c0 27 22 49 50 49l10 0 0-17-10 0c-17 0-33-14-33-32z m33-64l-81 0c-5 0-8 3-8 8 0 27 22 50 49 50 26 0 48-23 48-50 0-5-3-8-8-8z m-72 17l61 0c-3 13-15 24-30 24-14 0-28-11-31-24z m5-53c-5 0-8 3-8 8l0 9c0 5 3 8 8 8 5 0 9-3 9-8l0-9c0-5-4-8-9-8z m0-55c-5 0-8 4-8 9l0 18c0 6 3 9 8 9 5 0 9-3 9-9l0-18c0-5-4-9-9-9z m0-46c-5 0-8 4-8 9l0 8c0 5 3 9 8 9 5 0 9-4 9-9l0-8c0-5-4-9-9-9z m26 0c-5 0-9 4-9 9l0 6c0 6 4 9 9 9 5 0 8-3 8-9l0-6c0-5-3-9-8-9z m0 41c-5 0-9 3-9 9l0 17c0 5 4 8 9 8 5 0 8-3 8-8l0-17c0-6-3-9-8-9z m0 51c-5 0-9 4-9 9l0 17c0 5 4 8 9 8 5 0 8-3 8-8l0-17c0-5-3-9-8-9z m25 9c-5 0-8 3-8 8l0 9c0 5 3 8 8 8 5 0 9-3 9-8l0-9c0-5-4-8-9-8z m0-55c-5 0-8 4-8 9l0 18c0 6 3 9 8 9 5 0 9-3 9-9l0-18c0-5-4-9-9-9z m0-46c-5 0-8 4-8 9l0 8c0 5 3 9 8 9 5 0 9-4 9-9l0-8c0-5-4-9-9-9z m-158-75l261 0 0-17-261 0z m37 142l17 0 0-58-17 0z"/>
<glyph glyph-name="shower-and-bathtub" unicode="&#53;" d="M459 217l-17 0 0 182c0 23-19 41-41 41l-12 0c-22 0-41-18-41-41l0-6-17 0 0 6c0 33 26 58 58 58l12 0c32 0 58-25 58-58z m-70 99l-99 0c-5 0-8 3-8 8 0 33 25 58 58 58 32 0 58-25 58-58 0-5-4-8-9-8z m-89 17l81 0c-4 19-21 32-40 32-18 0-37-15-41-32z m9-60c-5 0-9 3-9 9l0 8c0 5 4 9 9 9 5 0 8-4 8-9l0-8c0-6-5-9-8-9z m0-49c-5 0-9 3-9 8l0 9c0 5 4 8 9 8 5 0 8-3 8-8l0-9c0-5-5-8-8-8z m31 0c-5 0-9 3-9 8l0 7c0 5 4 8 9 8 5 0 8-3 8-8l0-7c0-5-3-8-8-8z m0 41c-5 0-9 3-9 8l0 17c0 5 4 9 9 9 5 0 8-4 8-9l0-17c0-5-3-8-8-8z m32 8c-5 0-8 3-8 9l0 8c0 5 3 9 8 9 5 0 9-4 9-9l0-8c0-6-6-9-9-9z m0-49c-5 0-8 3-8 8l0 9c0 5 3 8 8 8 5 0 9-3 9-8l0-9c0-5-6-8-9-8z m26-168l-284 0c-34 0-63 28-63 63l0 84c0 5 4 9 9 9l389 0c5 0 8-4 8-9l0-84c2-35-25-63-59-63z m-328 137l0-75c0-26 20-46 46-46l282 0c25 0 44 20 44 46l0 75z m-9-31l390 0 0-17-390 0z"/>
<glyph glyph-name="shower-curtain" unicode="&#54;" d="M445 442l-378 0c-6 0-9 3-9 9 0 5 3 8 9 8l378 0c6 0 9-3 9-8 0-6-3-9-9-9z m-348-389c-12 0-24 5-34 14-3 3-3 8 0 12 4 3 9 3 12 0 12-12 33-12 43 0 3 3 8 3 12 0 3-4 3-9 0-12-9-9-21-14-33-14z m82 12c-2 0-5 0-7 2-5 5-13 8-22 8-8 0-15-3-22-8-3-4-9-4-12 0-3 3-3 8 0 12 9 8 21 13 34 13 12 0 24-5 34-13 4-4 4-9 0-12 0-2-1-2-5-2z m29-12c-12 0-24 5-34 14-3 3-3 8 0 12 3 3 9 3 12 0 12-12 31-12 43 0 3 3 8 3 12 0 3-4 3-9 0-12-9-9-21-14-33-14z m28 12c-2 0-6 0-7 2-4 3-4 8 0 12 8 8 20 13 34 13 12 0 24-5 34-13 3-4 3-9 0-12-3-4-9-4-12 0-5 5-14 8-22 8-9 0-16-3-22-8-2-2-4-2-5-2z m81-12c-12 0-23 5-34 14-3 3-3 8 0 12 4 3 9 3 12 0 12-12 31-12 43 0 3 3 8 3 12 0 3-4 3-9 0-12-7-9-21-14-33-14z m28 12c-5 0-9 3-9 8l0 323c0 5 4 8 9 8 5 0 8-3 8-8l0-323c0-5-3-8-8-8z m-275 0c-5 0-9 3-9 8l0 323c0 3 2 7 6 8 3 2 6 0 8-1 12-12 33-12 43 0 3 3 8 3 12 0 3-4 3-9 0-12-12-16-34-19-51-12l0-307c0-4-4-7-9-7z m55 322c-2 0-6 0-7 2-2 4-2 9 1 12 9 9 21 14 35 14 12 0 23-5 34-14 3-3 3-8 0-12-4-3-9-3-12 0-7 7-16 9-24 9-7 0-15-2-21-9-1-2-5-2-6-2z m83-12c-12 0-24 6-34 14-3 4-3 9 0 12 3 3 9 3 12 0 12-12 31-12 43 0 3 3 8 3 12 0 3-3 3-8 0-12-9-8-21-14-33-14z m82 12c-2 0-5 0-7 2-12 12-30 12-42 0-4-3-9-3-12 0-4 4-4 9 0 12 18 19 49 19 66 0 4-3 4-8 0-12 0-2-3-2-5-2z m27-12c-12 0-23 6-34 14-3 4-3 9 0 12 4 3 9 3 12 0 12-12 31-12 43 0 3 3 8 3 12 0 3-3 3-8 0-12-7-8-21-14-33-14z m-165-213c-5 0-9 4-9 9l0 145c0 5 4 8 9 8 5 0 8-3 8-8l0-145c0-5-3-9-8-9z m0-49c-5 0-9 3-9 8l0 10c0 6 4 9 9 9 5 0 8-3 8-9l0-10c0-3-3-8-8-8z m0 227c-5 0-9 3-9 8l0 10c0 6 4 9 9 9 5 0 8-5 8-9l0-10c0-5-3-8-8-8z m111-178c-5 0-9 4-9 9l0 145c0 5 4 8 9 8 5 0 8-3 8-8l0-145c0-5-3-9-8-9z m0-49c-5 0-9 3-9 8l0 10c0 6 4 9 9 9 5 0 8-3 8-9l0-10c0-3-3-8-8-8z m0 227c-5 0-9 3-9 8l0 10c0 6 4 9 9 9 5 0 8-3 8-9l0-10c0-5-3-8-8-8z m-202 93l18 0 0-11-18 0z m82 0l17 0 0-11-17 0z m84 0l17 0 0-11-17 0z m82 0l17 0 0-11-17 0z m84 0l17 0 0-11-17 0z m-23-71l84 0 0-17-84 0z m21-34c-2 0-5 0-7 1l-17 17c-2 2-2 4-2 7 0 4 2 5 2 7l17 17c3 4 9 4 12 0 3-3 3-8 0-12l-12-12 12-12c3-3 3-8 0-12 0-1-3-1-5-1z m-21-65l84 0 0-17-84 0z m21-34c-2 0-5 0-7 1l-17 17c-3 4-3 9 0 12l17 17c3 4 9 4 12 0 3-3 3-8 0-11l-12-12 12-12c3-4 3-9 0-12 0 1-3 0-5 0z m-21-63l84 0 0-18-84 0z m21-35c-2 0-5 0-7 2l-17 17c-2 2-2 4-2 7 0 3 2 5 2 7l17 17c3 3 9 3 12 0 3-4 3-9 0-12l-12-12 12-12c3-3 3-8 0-12 0-2-3-2-5-2z"/>
<glyph glyph-name="shower-head" unicode="&#55;" d="M333 145l-17 0 0 253c0 24-19 42-43 42l-14 0c-23 0-42-18-42-42l0-36-17 0 0 36c0 32 27 59 59 59l14 0c32 0 60-27 60-59z m-74 138l-102 0c-5 0-9 4-9 9 0 32 28 60 60 60 33 0 60-28 60-60 0-5-3-9-9-9z m-93 17l83 0c-3 19-20 35-41 35-20 0-37-16-42-35z m10-59c-5 0-9 3-9 8l0 9c0 5 4 8 9 8 5 0 8-3 8-8l0-9c0-5-5-8-8-8z m0-93c-5 0-9 4-9 9l0 15c0 5 4 9 9 9 5 0 8-4 8-9l0-15c0-3-5-9-8-9z m0 47c-5 0-9 3-9 8l0 15c0 6 4 9 9 9 5 0 8-3 8-9l0-15c0-5-5-8-8-8z m0-84c-5 0-9 3-9 8l0 9c0 5 4 9 9 9 5 0 8-4 8-9l0-9c0-5-5-8-8-8z m32 19c-5 0-8 3-8 8l0 17c0 5 3 9 8 9 5 0 9-4 9-9l0-17c0-5-4-8-9-8z m0 51c-5 0-8 3-8 8l0 18c0 5 3 8 8 8 5 0 9-3 9-8l0-18c0-5-4-8-9-8z m0 51c-5 0-8 4-8 9l0 17c0 5 3 8 8 8 5 0 9-3 9-8l0-17c0-5-4-9-9-9z m33 9c-5 0-9 3-9 8l0 9c0 5 4 8 9 8 5 0 8-3 8-8l0-9c0-5-3-8-8-8z m0-93c-5 0-9 4-9 9l0 15c0 5 4 9 9 9 5 0 8-4 8-9l0-15c0-3-3-9-8-9z m0 47c-5 0-9 3-9 8l0 15c0 6 4 9 9 9 5 0 8-3 8-9l0-15c0-5-3-8-8-8z m0-84c-5 0-9 3-9 8l0 9c0 5 4 9 9 9 5 0 8-4 8-9l0-9c0-5-3-8-8-8z m83-56c-22 0-39 18-39 39 0 22 19 39 39 39 22 0 40-19 40-39 0-22-18-39-40-39z m0 61c-12 0-22-10-22-22 0-12 10-22 22-22 12 0 22 10 22 22 0 12-10 22-22 22z"/>
<glyph glyph-name="side-lamp-1" unicode="&#56;" d="M422 290l-332 0c-5 0-8 4-8 9l0 42c0 38 31 69 68 69l212 0c37 0 68-31 68-69l0-42c0-5-3-9-8-9z m-323 17l314 0 0 34c0 28-22 52-51 52l-212 0c-27 0-51-23-51-52z m239 86l-166 0c-3 0-6 5-6 8l0 22c0 21 17 38 37 38l106 0c20 0 37-17 37-38l0-20c0-5-3-10-8-10z m-155 17l148 0 0 13c0 12-10 21-20 21l-106 0c-12 0-21-11-21-21l0-13z m64-128l18 0 0-164-18 0z m96-231l-174 0c-5 0-9 4-9 9l0 41c0 5 4 8 9 8l176 0c5 0 8-3 8-8l0-41c-1-5-5-9-10-9z m-166 17l159 0 0 24-159 0z m152 203l17 0 0-46-17 0z m9-70c-12 0-21 9-21 21 0 12 9 20 21 20 12 0 20-10 20-20 0-10-8-21-20-21z m0 24c-2 0-3-1-3-3 0-4 6-4 6 0 0 2 0 3-3 3z"/>
<glyph glyph-name="side-lamp-2" unicode="&#57;" d="M384 241l-256 0c-3 0-5 1-7 3-2 2-2 3-2 7l52 169c1 3 5 7 8 7l154 0c3 0 7-2 8-7l52-169c0-4 0-5-2-7-2-3-5-3-7-3z m-244 17l232 0-46 152-140 0z m107-26l18 0 0-114-18 0z m0 220l18 0 0-12-18 0z m96-401l-174 0c-5 0-9 4-9 9l0 41c0 5 4 8 9 8l176 0c5 0 8-3 8-8l0-41c-1-5-5-9-10-9z m-166 17l159 0 0 24-159 0z m125 154l17 0 0-46-17 0z m9-70c-12 0-21 8-21 20 0 12 9 21 21 21 12 0 20-9 20-21 0-12-8-20-20-20z m0 24c-2 0-4-2-4-4 0-3 7-3 7 0 0 2-2 4-3 4z"/>
<glyph glyph-name="side-lamp-3" unicode="&#33;" d="M247 452l18 0 0-12-18 0z m0-216l18 0 0-118-18 0z m96-185l-174 0c-5 0-9 4-9 9l0 41c0 5 4 8 9 8l176 0c5 0 8-3 8-8l0-41c-1-5-5-9-10-9z m-166 17l159 0 0 24-159 0z m125 154l17 0 0-46-17 0z m9-70c-12 0-21 8-21 20 0 12 9 21 21 21 12 0 20-9 20-21 0-12-8-20-20-20z m0 24c-2 0-4-2-4-4 0-3 7-3 7 0 0 2-2 4-3 4z m114 65l-5 0c-2 0-5 1-7 1l-20 21-18-17c-3-4-8-4-11 0l-18 17-17-17c-3-4-8-4-12 0l-17 17-17-17c-3-4-8-4-12 0l-17 17-17-17c-3-4-8-4-12 0l-17 17-17-17c-3-4-8-4-12 0l-17 17-17-17c-3-4-8-4-12 0l-17 17-20-21c-2-1-4-1-7-1l-2 0c-5 0-8 3-8 8 0 97 80 178 177 178 97 0 177-81 177-178 0-5-3-8-8-8z m-32 44c1 0 5 0 6-2l17-17c-8 79-76 144-160 144-84 0-152-64-160-144l17 17c3 4 8 4 12 0l17-17 17 17c3 4 8 4 12 0l17-17 17 17c3 4 8 4 12 0l17-17 17 17c3 4 8 4 12 0l17-17 17 17c3 4 8 4 12 0l17-17 17 17c3 4 9 4 12 0l17-17 17 17c0 0 2 2 4 2z"/>
<glyph glyph-name="side-table-and-lamp" unicode="&#34;" d="M364 53l-216 0c-22 0-39 17-39 39l0 132c0 22 17 39 39 39l216 0c22 0 39-17 39-39l0-132c0-22-17-39-39-39z m-216 193c-11 0-22-10-22-22l0-132c0-12 11-22 22-22l216 0c11 0 22 10 22 22l0 132c0 12-11 22-22 22z m-30-80l276 0 0-18-276 0z m118 47l40 0 0-17-40 0z m0-94l40 0 0-17-40 0z m83 127l-126 0c-5 0-9 3-9 8 0 26 21 46 46 46l53 0c26 0 46-20 46-46-1-5-5-8-10-8z m-116 17l108 0c-4 12-14 20-28 20l-53 0c-13 0-23-8-27-20z m44 61l18 0 0-13-18 0z m106 9l-194 0c-4 0-5 2-7 3-2 4-2 5-2 9l34 109c2 3 5 7 9 7l126 0c4 0 7-2 9-7l34-109c0-4 0-5-2-7-2-3-3-5-7-5z m-182 17l170 0-29 92-114 0z m140-29l17 0 0-12-17 0z"/>
<glyph glyph-name="sink" unicode="&#35;" d="M396 355l-17 0 0 72c0 10-9 17-17 17-10 0-17-9-17-17l0-29-17 0 0 29c0 18 15 34 34 34 19 0 34-16 34-34z m8-304l-238 0c-4 0-6 2-7 4-2 1-2 5-2 6l26 127c-43 22-74 63-82 109-2 10 0 22 7 31 6 8 17 13 29 13l269 0c5 0 9-3 9-8l0-272c-2-6-5-10-11-10z m-228 17l222 0 0 255-263 0c-5 0-12-4-16-7-3-5-5-11-3-17 9-43 39-81 79-101 3-2 5-5 5-10z m107 115l-44 0c-5 0-9 3-9 8 0 5 4 9 9 9l44 0c5 0 9-4 9-9 0-5-4-8-9-8z m121 0l-88 0c-5 0-9 3-9 8 0 5 4 9 9 9l88 0c6 0 9-4 9-9 0-5-3-8-9-8z"/>
<glyph glyph-name="small-drawers" unicode="&#36;" d="M451 355l-390 0c-5 0-8 3-8 9l0 40c0 6 3 9 8 9l391 0c5 0 9-3 9-9l0-40c-2-6-5-9-10-9z m-381 17l374 0 0 24-374 0z m340-242l-308 0c-5 0-8 3-8 8l0 226c0 5 3 8 8 8l308 0c5 0 8-3 8-8l0-226c0-3-3-8-8-8z m-299 17l290 0 0 208-290 0z m46-48l-34 0c-5 0-9 3-9 9l0 30c0 5 4 9 9 9l36 0c5 0 8-4 8-9l0-30c-1-6-5-9-10-9z m-26 17l19 0 0 14-19 0z m258-17l-36 0c-5 0-8 3-8 9l0 30c0 5 3 9 8 9l36 0c5 0 9-4 9-9l0-30c0-6-4-9-9-9z m-27 17l19 0 0 14-19 0z m-123 147l-101 0c-5 0-8 3-8 8l0 64c0 5 3 8 8 8l101 0c5 0 8-3 8-8l0-64c0-5-3-8-8-8z m-92 17l83 0 0 44-83 0z m227-17l-101 0c-5 0-8 3-8 8l0 64c0 5 3 8 8 8l101 0c5 0 8-3 8-8l0-64c0-5-3-8-8-8z m-92 17l83 0 0 44-83 0z m-43-114l-101 0c-5 0-8 3-8 8l0 63c0 5 3 9 8 9l101 0c5 0 8-4 8-9l0-63c0-5-3-8-8-8z m-92 17l83 0 0 46-83 0z m227-17l-101 0c-5 0-8 3-8 8l0 63c0 5 3 9 8 9l101 0c5 0 8-4 8-9l0-63c0-5-3-8-8-8z m-92 17l83 0 0 46-83 0z m-91 111l-5 0c-5 0-9 3-9 8 0 5 4 9 9 9l5 0c5 0 9-4 9-9 0-5-4-8-9-8z m135 0l-5 0c-5 0-9 3-9 8 0 5 4 9 9 9l5 0c5 0 9-4 9-9 0-5-4-8-9-8z m-135-98l-5 0c-5 0-9 4-9 9 0 5 4 8 9 8l5 0c5 0 9-3 9-8 0-5-4-9-9-9z m135 0l-5 0c-5 0-9 4-9 9 0 5 4 8 9 8l5 0c5 0 9-3 9-8 0-5-4-9-9-9z"/>
<glyph glyph-name="small-stool" unicode="&#37;" d="M449 336l-386 0c-5 0-8 4-8 9l0 54c0 5 3 9 8 9l386 0c5 0 8-4 8-9l0-56c0-3-3-7-8-7z m-377 17l368 0 0 38-368 0z m24-249l-35 0c-3 0-5 2-6 4-2 1-2 5-2 6l55 232c1 4 5 7 8 7l68 0c4 0 5-1 7-3 2-2 2-5 2-9l-91-232c-1-3-3-5-6-5z m-24 17l17 0 83 215-49 0z m379-17l-33 0c-3 0-7 2-8 5l-91 232c-2 4 0 5 2 9 2 2 3 3 7 3l68 0c3 0 7-3 8-7l55-232c0-1 0-5-2-6-1-4-5-4-6-4z m-28 17l17 0-49 215-50 0z m-242 155l150 0 0-17-150 0z m-22-63l196 0 0-17-196 0z"/>
<glyph glyph-name="square-plant" unicode="&#38;" d="M312 53l-114 0c-3 0-7 2-9 5l-44 133c-2 4 0 5 2 9 1 1 3 3 7 3l203 0c3 0 5-2 7-3 1-2 1-5 1-9l-44-133c-2-3-5-5-9-5z m-107 17l102 0 39 116-179 0z m42 160l18 0 0-22-18 0z m0 106l18 0 0-94-18 0z m9-13c-2 0-5 0-7 1l-19 19c-3 3-3 9 0 12 4 3 9 3 12 0l14-12 12 12c3 3 8 3 12 0 3-3 3-9 0-12l-17-19c-2-1-5-1-7-1z m46-86l-90 0c-36 0-65 29-65 65l0 92c0 36 29 65 65 65l90 0c36 0 65-29 65-65l0-90c0-36-29-67-65-67z m-92 205c-27 0-48-22-48-48l0-90c0-28 22-48 48-48l90 0c28 0 48 22 48 48l0 90c0 28-22 48-48 48z"/>
<glyph glyph-name="standing-lamp" unicode="&#39;" d="M321 55l-130 0c-5 0-8 3-8 8 0 26 20 46 46 46l54 0c26 0 46-20 46-46 0-5-3-8-8-8z m-120 17l110 0c-4 12-16 20-28 20l-54 0c-14-2-24-10-28-20z m55 18c-5 0-9 4-9 9l0 152c0 5 4 8 9 8 5 0 9-3 9-8l0-152c0-3-4-9-9-9z m99 180l-198 0c-2 0-5 1-7 3-2 2-2 5-2 7l35 172c0 4 5 7 8 7l130 0c3 0 7-3 8-7l35-169c0-1 1-1 1-3-1-7-5-10-10-10z m-188 17l176 0-31 155-114 0z m133-17l-88 0c-2 0-5 1-7 3-2 2-2 3-2 7l15 172c0 5 4 9 9 9l58 0c5 0 9-4 9-9l15-169c0-1 0-1 0-3 0-7-4-10-9-10z m-78 17l68 0-14 155-42 0z m99-62c-5 0-9 4-9 9l0 17c0 5 4 8 9 8 5 0 8-3 8-8l0-17c0-5-3-9-8-9z"/>
<glyph glyph-name="stool" unicode="&#40;" d="M328 352l-144 0c-18 0-34 15-34 34l0 41c0 18 16 34 34 34l144 0c18 0 34-16 34-34l0-41c0-19-16-34-34-34z m-144 92c-8 0-17-7-17-17l0-41c0-9 7-17 17-17l144 0c8 0 17 6 17 17l0 41c0 8-7 17-17 17z m-15-393c0 0-2 0 0 0-7 2-9 5-9 10l47 248c1 5 5 7 10 7 5-2 8-5 7-11l-47-247c-1-3-5-7-8-7z m174 0c-3 0-7 4-8 7l-47 247c-1 6 2 9 7 11 5 0 9-2 10-7l47-248c0-3-2-8-9-10 2 0 0 0 0 0z m-19 270l-136 0c-5 0-9 3-9 8l0 31c0 5 4 9 9 9l136 0c5 0 9-4 9-9l0-31c0-3-5-8-9-8z m-128 17l118 0 0 14-118 0z m116-113l-114 0c-5 0-9 4-9 9 0 5 4 8 9 8l114 0c5 0 9-3 9-8 0-5-4-9-9-9z m17-39l-148 0c-5 0-9 3-9 9 0 5 4 8 9 8l148 0c6 0 9-3 9-8 0-6-3-9-9-9z m-73-135c-5 0-9 4-9 9l0 247c0 5 4 9 9 9 5 0 9-4 9-9l0-247c0-4-4-9-9-9z"/>
<glyph glyph-name="television" unicode="&#41;" d="M452 53l-61 0c-4 0-7 2-9 5l-15 38-222 0-15-38c-2-3-5-5-9-5l-61 0c-5 0-9 3-9 8l0 127c0 5 4 8 9 8l392 0c5 0 9-3 9-8l0-127c0-5-4-8-9-8z m-56 17l48 0 0 109-376 0 0-109 48 0 15 38c2 3 6 5 9 5l235 0c4 0 7-2 9-5z m-130 68l-19 0c-5 0-8 4-8 9 0 5 3 8 8 8l19 0c5 0 9-3 9-8 0-5-5-9-9-9z m162 109l-344 0c-5 0-9 4-9 9l0 195c0 5 4 8 9 8l344 0c5 0 9-3 9-8l0-195c0-5-4-9-9-9z m-336 18l328 0 0 177-328 0z m155-19l18 0 0-38-18 0z m-61-21l138 0 0-17-138 0z"/>
<glyph glyph-name="toilet" unicode="&#42;" d="M179 218l-68 0c-19 0-32 16-32 33l0 176c0 18 15 32 32 32l68 0c19 0 33-15 33-32l0-174c1-19-14-35-33-35z m-68 224c-9 0-15-7-15-15l0-174c0-9 6-16 15-16l68 0c9 0 16 7 16 16l0 174c0 8-7 15-16 15z m131-166l183 0 0-17-183 0z m34-223l-163 0c-5 0-9 3-9 8l0 168c0 5 4 8 9 8l281 0c5 0 9-3 9-8l0-55c0-32-28-60-60-60l-67 0 9-51c0-2 0-5-2-7-1-1-5-3-7-3z m-155 17l145 0-8 51c0 2 0 5 1 7 2 2 4 3 7 3l75 0c24 0 43 19 43 43l0 46-263 0z m115 61l107 0 0-17-107 0z m-91 204c-20 0-26 54-26 54 0 14 12 26 26 26 14 0 26-11 26-24 0-2-5-56-26-56z m0 63c-3 0-8-4-8-9 0-7 3-25 8-34 5 10 9 29 9 36 0 3-4 7-9 7z"/>
<glyph glyph-name="towel" unicode="&#43;" d="M389 336l-78 0c-6 0-9 4-9 9l0 29c0 25 21 46 46 46l5 0c26 0 46-21 46-46l0-28c-1-5-5-10-10-10z m-70 17l62 0 0 21c0 15-12 29-29 29l-6 0c-15 0-29-12-29-29l0-21z m-8-259l-188 0c-5 0-9 3-9 8l0 272c0 25 21 46 46 46l190 0c5 0 8-4 8-9 0-5-3-8-8-8-15 0-29-12-29-29l0-167c0 0 0-2 0-2l0-103c-2-5-5-8-10-8z m-180 17l171 0 0 96c0 0 0 1 0 1l0 166c0 10 3 20 10 29l-153 0c-16 0-29-12-29-29l0-263z m-8 101l188 0 0-17-188 0z m27-9l17 0 0-101-17 0z m39 0l18 0 0-101-18 0z m38 0l17 0 0-101-17 0z m39 0l17 0 0-101-17 0z m186 89l-141 0c-6 0-9 3-9 8l0 45c0 5 3 8 9 8l141 0c5 0 9-3 9-8l0-45c0-5-4-8-9-8z m-133 17l125 0 0 27-125 0z m-196-17l-63 0c-5 0-9 3-9 8l0 45c0 5 4 8 9 8l63 0c5 0 8-3 8-8l0-45c0-5-5-8-8-8z m-55 17l46 0 0 27-46 0z m321-166l-78 0c-6 0-9 4-9 9l0 148c0 5 3 9 9 9l78 0c5 0 9-4 9-9l0-148c0-5-4-9-9-9z m-70 17l62 0 0 132-62 0z"/>
<glyph glyph-name="triangle-plant" unicode="&#44;" d="M312 53l-114 0c-3 0-7 2-9 5l-44 133c-2 4 0 5 2 9 1 1 3 3 7 3l203 0c3 0 5-2 7-3 1-2 1-5 1-9l-44-133c-2-3-5-5-9-5z m-107 17l102 0 39 116-179 0z m42 160l18 0 0-22-18 0z m0 60l18 0 0-48-18 0z m9-15c-2 0-5 1-7 1l-19 19c-3 4-3 9 0 12 4 4 9 4 12 0l12-12 12 12c4 4 9 4 12 0 4-3 4-8 0-12l-19-19c2 0-1-1-3-1z m79-41l-159 0c-10 0-21 5-26 15-5 9-7 21-2 31l79 164c5 10 15 17 27 17 12 0 22-7 28-17l78-164c5-10 4-21-2-31-3-10-12-15-23-15z m-79 208c-5 0-10-3-12-9l-78-163c-2-5-2-11 0-14 3-3 6-7 11-7l159 0c5 0 9 2 12 7 2 3 4 9 0 14l-78 163c-4 7-9 9-14 9z"/>
<glyph glyph-name="two-drawers" unicode="&#45;" d="M451 355l-390 0c-5 0-8 3-8 9l0 40c0 6 3 9 8 9l391 0c5 0 9-3 9-9l0-40c-2-6-5-9-10-9z m-381 17l374 0 0 24-374 0z m340-242l-308 0c-5 0-8 3-8 8l0 226c0 5 3 8 8 8l308 0c5 0 8-3 8-8l0-226c0-3-3-8-8-8z m-299 17l290 0 0 208-290 0z m46-48l-34 0c-5 0-9 3-9 9l0 30c0 5 4 9 9 9l36 0c5 0 8-4 8-9l0-30c-1-6-5-9-10-9z m-26 17l19 0 0 14-19 0z m258-17l-36 0c-5 0-8 3-8 9l0 30c0 5 3 9 8 9l36 0c5 0 9-4 9-9l0-30c0-6-4-9-9-9z m-27 17l19 0 0 14-19 0z m12 50l-236 0c-5 0-8 3-8 8l0 63c0 5 3 9 8 9l236 0c5 0 8-4 8-9l0-63c0-5-3-8-8-8z m-227 17l218 0 0 46-218 0z m111 13l-5 0c-6 0-9 4-9 9 0 5 3 8 9 8l5 0c5 0 8-3 8-8 0-5-3-9-8-9z m116 65l-236 0c-5 0-8 4-8 9l0 63c0 5 3 8 8 8l236 0c5 0 8-3 8-8l0-63c0-5-3-9-8-9z m-227 17l218 0 0 46-218 0z m111 14l-5 0c-6 0-9 3-9 8 0 5 3 9 9 9l5 0c5 0 8-4 8-9 0-5-3-8-8-8z"/>
<glyph glyph-name="upstairs" unicode="&#46;" d="M399 268l-182 0c-5 0-9 3-9 8l0 67c0 5 4 9 9 9l182 0c5 0 9-4 9-9l0-67c0-5-4-8-9-8z m-174 17l166 0 0 50-166 0z m123-84l-184 0c-5 0-9 4-9 9l0 66c0 6 4 9 9 9l182 0c6 0 9-3 9-9l0-66c2-5-3-9-7-9z m-176 17l166 0 0 50-166 0z m123-83l-182 0c-5 0-9 3-9 8l0 67c0 5 4 8 9 8l182 0c5 0 9-3 9-8l0-67c0-5-4-8-9-8z m-174 17l166 0 0 49-166 0z m121-84l-182 0c-5 0-9 4-9 9l0 66c0 5 4 9 9 9l182 0c5 0 9-4 9-9l0-66c0-5-4-9-9-9z m-174 17l166 0 0 50-166 0z m384-17l-259 0c-5 0-9 4-9 9 0 5 4 8 9 8l251 0 0 250-113 0c-5 0-8 3-8 8 0 5 3 9 8 9l121 0c5 0 9-4 9-9l0-268c0-3-4-7-9-7z m-243 374l12-13-68-67-12 12z m-82-83l12-12-18-18-12 12z m-30-31l12-12-18-18-12 12z m120 54c-5 0-9 4-9 9l0 36-37 0c-4 0-9 5-9 8 0 4 5 9 9 9l44 0c3 0 5 0 7-2 2-2 2-3 2-7l0-44c1-5-4-9-7-9z"/>
<glyph glyph-name="urinary-toilet" unicode="&#47;" d="M148 457l18 0 0-404-18 0z m128-384l-8 0c-48 0-87 40-87 87l0 176c0 28 22 50 49 50 28 0 50-22 50-50l0-7c0 0 0-1 0-1 0 0 0-2 0-2l0-87c0-39 31-70 70-70l3 0c2 0 5-2 7-3 2-2 2-4 2-7 0-46-39-86-86-86z m-46 297c-18 0-32-15-32-32l0-176c0-39 31-70 70-70l8 0c35 0 65 26 70 60-46 3-81 41-81 87l0 87c0 0 0 0 0 2l0 10c-2 17-16 32-35 32z m19 21l-17 0 0 25-51 0 0 17 55 0c6 0 13-5 13-13z"/>
<glyph glyph-name="wardrobe" unicode="&#58;" d="M364 75l-216 0c-17 0-32 15-32 33l0 320c0 17 15 33 32 33l216 0c17 0 32-16 32-33l0-320c0-18-14-33-32-33z m-216 369c-8 0-15-7-15-16l0-320c0-9 7-16 15-16l216 0c8 0 15 7 15 16l0 320c0 9-7 16-15 16z m99 8l18 0 0-368-18 0z m-39-153l17 0 0-62-17 0z m79 0l17 0 0-62-17 0z m-144-231l40 0 0-17-40 0z m188 0l39 0 0-17-39 0z"/>
<glyph glyph-name="wardrobe-with-drawers" unicode="&#59;" d="M364 75l-216 0c-17 0-32 15-32 33l0 320c0 17 15 33 32 33l216 0c17 0 32-16 32-33l0-320c0-18-14-33-32-33z m-216 369c-8 0-15-7-15-16l0-320c0-9 7-16 15-16l216 0c8 0 15 7 15 16l0 320c0 9-7 16-15 16z m99 8l18 0 0-368-18 0z m-39-153l17 0 0-62-17 0z m-65-231l40 0 0-17-40 0z m188 0l39 0 0-17-39 0z m-75 178l131 0 0-17-131 0z m0-75l131 0 0-17-131 0z m53 37l26 0 0-17-26 0z m0-73l26 0 0-17-26 0z"/>
<glyph glyph-name="window" unicode="&#60;" d="M452 51l-392 0c-5 0-9 4-9 9l0 392c0 5 4 9 9 9l392 0c5 0 9-4 9-9l0-392c0-5-4-9-9-9z m-384 17l376 0 0 376-376 0z m171 195l-137 0c-5 0-8 3-8 8l0 139c0 5 3 8 8 8l137 0c5 0 8-3 8-8l0-139c0-5-3-8-8-8z m-128 17l121 0 0 121-121 0z m22 84c-2 0-5 0-7 1-3 5-3 10 0 14l11 10c3 4 8 4 11 0 4-3 4-8 0-12l-10-10c-1-2-3-3-5-3z m5-36c-1 0-5 0-7 1-3 4-3 9 0 12l11 11c3 3 8 3 12 0 3-4 3-9 0-12l-11-11c-1-1-3-1-5-1z m29 29c-1 0-5 1-5 1-3 4-3 9 0 12l9 12c3 4 8 4 12 0 3-3 3-8 0-12l-9-12c-2 0-5-1-7-1z m243-94l-137 0c-5 0-8 3-8 8l0 139c0 5 3 8 8 8l137 0c5 0 8-3 8-8l0-139c0-5-3-8-8-8z m-128 17l121 0 0 121-121 0z m22 84c-2 0-5 0-7 1-3 4-3 9 0 12l10 12c4 4 9 4 12 0 4-3 4-8 0-12l-10-10c0-2-4-3-5-3z m5-36c-2 0-5 0-7 1-3 4-3 9 0 12l10 11c4 3 9 3 12 0 4-4 4-9 0-12l-10-11c0-1-3-1-5-1z m29 29c-2 0-5 0-7 1-3 4-3 9 0 12l10 11c4 3 9 3 12 0 4-4 4-9 0-12l-8-11c-2 0-4-1-7-1z m70-263l-138 0c-5 0-9 3-9 8l0 139c0 5 4 8 9 8l138 0c5 0 8-3 8-8l0-139c0-5-3-8-8-8z m-128 17l121 0 0 121-121 0z m22 84c-2 0-5 0-7 1-3 4-3 9 0 12l10 10c4 4 9 4 12 0 4-3 4-8 0-11l-10-9c-2-2-3-3-5-3z m5-38c-2 0-5 0-7 2-3 3-3 8 0 12l11 10c3 3 8 3 12 0 3-4 3-9 0-12l-11-10c-1 0-3-2-5-2z m29 31c-1 0-5 0-7 1-3 4-3 9 0 12l11 11c3 3 8 3 12 0 3-4 3-9 0-12l-11-11c0-1-3-1-5-1z m-97-94l-137 0c-5 0-8 3-8 8l0 139c0 5 3 8 8 8l137 0c5 0 8-3 8-8l0-139c0-5-3-8-8-8z m-128 17l121 0 0 121-121 0z m22 84c-2 0-5 0-7 1-3 4-3 9 0 12l11 12c3 4 8 4 11 0 4-3 4-8 0-12l-10-10c-1-2-3-3-5-3z m5-38c-1 0-5 0-7 2-3 3-3 8 0 12l11 10c3 3 8 3 12 0 3-4 3-9 0-12l-11-10c-1 0-3-2-5-2z m29 31c-1 0-5 0-7 1-3 4-3 9 0 12l11 11c3 3 8 3 12 0 3-4 3-9 0-12l-11-11c0-1-3-1-5-1z"/>
</font>
</defs>
</svg>
